<?xml version="1.0" encoding="UTF-8"?>
<svg id="Layer_2" data-name="Layer 2" xmlns="http://www.w3.org/2000/svg" viewBox="0 0 127.84 60.55">
  <defs>
    <style>
      .cls-1 {
        fill: none;
        stroke: #231f20;
        stroke-miterlimit: 10;
      }

      .cls-2 {
        fill: #231f20;
      }
    </style>
  </defs>
  <g id="pusle">
    <path class="cls-2" d="M127.77,25.67c1.49,23.99-20.71,24.29-33.81,25.28-17.18,.07-42.83,1.18-51.2,.76,.77-9.04,1.33-11.56,4.28-16.55,2.36-3.98,6.98-4.8,8.69-4.54,15.09,2.32,10.74-5.32,8.52-10.59-2.76-6.57,3.71-10.48,5.77-4.12,3.08,9.48,11.65,23.07,18.51,8.55,5.11-10.82,8.2-20.87,21.23-20.02,9.52,.62,17.28,9.72,18,21.24Z"/>
    <path class="cls-2" d="M37.34,20.29c1.43-1.36,3.16-2.27,4.42-3.86s1.91-4.27,.75-5.96c-1.47-2.14-4.71-1.29-6.09-3.52-.85-1.37-.54-3.44,.41-4.72s2.38-1.87,3.78-2.11c4.5-.76,9.22,1.88,11.8,6.4s2.98,10.67,1.2,15.73c-1.57,4.44-4.85,8.07-8.75,9.06-5.55,1.42-14.36-4.57-7.53-11.04Z"/>
    <path class="cls-1" d="M56.82,32.9c5.19,8.98-2.65,19.84-21.83,19.75-12-.06-21.69-9-21.63-19.96S23.22,11.83,35.19,12.94c12.22,1.13,17.99,13.66,21.63,19.96Z"/>
    <rect class="cls-2" y="54.88" width="121.94" height="5.67"/>
  </g>
</svg>