<?xml version="1.0" encoding="UTF-8"?>
<svg id="Layer_1" data-name="Layer 1" xmlns="http://www.w3.org/2000/svg" viewBox="0 0 288.32 277.59">
  <defs>
    <style>
      .cls-1 {
        fill: #f59d1e;
      }
    </style>
  </defs>
  <path class="cls-1" d="M98.4,71.82c2.96-6.24,8.98-17.13,19.18-25.64,9.17-7.65,17.74-10.06,22.82-10.92,4.86-.04,14.55,.81,25.13,8.55,10.79,7.89,17.02,18.93,19.84,24.64-9.89-4.32-24.63-9-42.66-8.5-19.04,.54-34.34,6.66-44.31,11.87Z"/>
  <path class="cls-1" d="M138.52,71.82v186.4c-7.13-1.2-30.61-6.16-49.68-29.39-22.59-27.51-22.46-60.5-22.29-67.39-.34-5-2.15-39.59,21.66-65.96,20.08-22.24,44.74-23.52,50.32-23.66Z"/>
  <path class="cls-1" d="M149.29,71.82v186.4c7.13-1.2,30.61-6.16,49.68-29.39,22.59-27.51,22.46-60.5,22.29-67.39,.34-5,2.15-39.59-21.66-65.96-20.08-22.24-44.74-23.52-50.32-23.66Z"/>
  <path class="cls-1" d="M166.72,46.76c2.18-6.54,7.68-20.32,20.28-31.87C197.14,5.59,207.39,1.84,213.22,.24c1.18-.54,2.47-.12,3.06,.86,.74,1.23,.33,3.24-1.15,4.09-5.57,1.55-14.76,4.99-23.92,13.14-13.1,11.64-18.47,26.08-20.47,32.52-1.34-1.36-2.68-2.73-4.02-4.09Z"/>
  <path class="cls-1" d="M116.3,46.76c-2.18-6.54-7.68-20.32-20.28-31.87C85.88,5.59,75.63,1.84,69.8,.24c-1.18-.54-2.47-.12-3.06,.86-.74,1.23-.33,3.24,1.15,4.09,5.57,1.55,14.76,4.99,23.92,13.14,13.1,11.64,18.47,26.08,20.47,32.52,1.34-1.36,2.68-2.73,4.02-4.09Z"/>
  <path class="cls-1" d="M207.84,118.22l29.11-15.47,13.01-37.26c.54-1.59,1.99-2.43,3.25-2.06,.97,.29,1.73,1.27,1.92,2.49-4.27,13.42-8.55,26.85-12.82,40.27-10.78,6.03-21.56,12.06-32.34,18.09l-2.13-6.07Z"/>
  <path class="cls-1" d="M75.92,113.4l-29.11-15.47-13.01-37.26c-.54-1.59-1.99-2.43-3.25-2.06-.97,.29-1.73,1.27-1.92,2.49,4.27,13.42,8.55,26.85,12.82,40.27,10.78,6.03,21.56,12.06,32.34,18.09l2.13-6.07Z"/>
  <path class="cls-1" d="M218.92,150.69l34.14-9.68c11.38,4.01,22.76,8.02,34.14,12.03,.38,.78,1.75,3.68,.78,4.99-.68,.92-2.21,.67-3.24,.44-6.04-1.36-27.13-9.62-30.64-11-10.96,3.63-21.91,7.27-32.87,10.9l-2.32-7.68Z"/>
  <path class="cls-1" d="M69.4,150.69l-34.14-9.68c-11.38,4.01-22.76,8.02-34.14,12.03-.38,.78-1.75,3.68-.78,4.99,.68,.92,2.21,.67,3.24,.44,6.04-1.36,27.13-9.62,30.64-11,10.96,3.63,21.91,7.27,32.87,10.9l2.32-7.68Z"/>
  <path class="cls-1" d="M75.08,205.98l-37.78,23.46-10.95,44.29c.06,1.94,1.3,3.53,2.87,3.81,1.29,.23,2.62-.46,3.39-1.76,3.65-14.08,7.3-28.16,10.95-42.24,11.75-6.59,23.51-13.17,35.26-19.76-1.24-2.6-2.49-5.21-3.73-7.81Z"/>
  <path class="cls-1" d="M211.57,203.56l37.78,23.46,10.95,44.29c-.06,1.94-1.3,3.53-2.87,3.81-1.29,.23-2.62-.46-3.39-1.76-3.65-14.08-7.3-28.16-10.95-42.24-11.75-6.59-23.51-13.17-35.26-19.76,1.24-2.6,2.49-5.21,3.73-7.81Z"/>
</svg>