<?xml version="1.0" encoding="UTF-8"?>
<svg id="Layer_2" data-name="Layer 2" xmlns="http://www.w3.org/2000/svg" viewBox="0 0 223.37 207.69">
  <defs>
    <style>
      .cls-1 {
        stroke-width: 2px;
      }

      .cls-1, .cls-2, .cls-3 {
        fill: none;
        stroke: #6d9887;
        stroke-miterlimit: 10;
      }

      .cls-3 {
        stroke-width: 3px;
      }

      .cls-4 {
        fill: #6d9887;
      }
    </style>
  </defs>
  <g id="Layer_1-2" data-name="Layer 1">
    <g>
      <path class="cls-4" d="M75.29,98.17c5.6,2.81,10.35,7.72,11.99,13.77,1.65,6.05-.26,13.17-5.33,16.87s-13.11,2.98-16.8-2.09c10.45,10.68,20.9,21.36,31.36,32.04-4.47-1.28-8.93-2.55-13.4-3.83,8.03,13.82,18.23,29.14,34.09,31.14,13.32,1.68,26.14-7.35,33.03-18.87,6.89-11.52,9.07-25.16,11.12-38.43-5.41,4.76-10.82,9.52-16.24,14.28,8.42-15.7,9.63-35.08,3.23-51.7-2.76,7.62-8.24,14.22-15.22,18.34-6.09-3.54-9.48-10.59-10.34-17.59-.86-7,.44-14.06,1.73-20.99-4.74,5.9-12.31,9.4-19.88,9.21-4.36-.11-7.41-2.2-11.4-3.19-5.45-1.36-4.1-2.44-5.48,2.1-2.54,8.32-1.02,16.44-12.47,18.94Z"/>
      <path class="cls-4" d="M135.12,207.69c-2.29-32.11-10.53-63.8-24.17-92.96"/>
      <path class="cls-4" d="M112.34,154.52c5.37,3.79,10.74,7.58,16.12,11.38,2.78-11.93,5.57-23.86,8.35-35.79"/>
    </g>
    <g>
      <path class="cls-1" d="M104.94,.38c-6.03,14.77-15.14,28.85-26.51,40.98-12.41,13.27-27.55,23.43-40.83,35.76-11.64,10.82-22.25,24.09-25.15,38.94-2.54,13,2.43,26.92,15.1,30.16,5.41,1.38,11.84,.35,17.45-2.61,4.69-2.48,11.78-8.3,11.31-13.78-.12-1.39-.84-2.55-1.99-3.21"/>
      <path class="cls-1" d="M77.23,24.84c-4.58,14.89-16,26.16-28.03,35.61-12.02,9.44-25.15,17.79-35,29.5C4.35,101.66-1.94,117.81,2.4,133.49"/>
      <path class="cls-2" d="M43.93,129.05c-.74,3.25-5.14,5.26-8.09,4.39-2.94-.87-4.59-3.66-5.58-6.51-2.42-6.95-2.01-15.26,1.13-23.02,3.15-7.76,9-14.9,16.2-19.77"/>
      <path class="cls-3" d="M196.46,45.7c20.47,17.97,27.57,47.8,24.86,75.31-1.7,17.34-6.79,34.12-13,50.33-4.73,12.4-9.64,33.72-26.53,33.34"/>
      <path class="cls-1" d="M191.53,85.82c11.78,29.16,8.89,64.14-7.54,91.33"/>
      <path class="cls-1" d="M177.54,138.02c3.2,8.54,2.19,18.63-2.66,26.45"/>
    </g>
    <path class="cls-1" d="M192.63,88.4c-3.06-7.58-8.57-14.14-15.5-18.47"/>
  </g>
</svg>