<?xml version="1.0" encoding="UTF-8"?>
<svg id="Layer_2" data-name="Layer 2" xmlns="http://www.w3.org/2000/svg" viewBox="0 0 298.18 276.9">
  <defs>
    <style>
      .cls-1 {
        stroke-width: 2px;
      }

      .cls-1, .cls-2 {
        fill: none;
        stroke: #8599b2;
        stroke-miterlimit: 10;
      }

      .cls-3 {
        fill: #6d9887;
      }

      .cls-2 {
        stroke-width: 3px;
      }
    </style>
  </defs>
  <g id="Layer_1-2" data-name="Layer 1">
    <g>
      <path class="cls-3" d="M164.34,106.43c8.25,2.53,13.58,11.12,14.44,19.71,.85,8.59-2,17.13-5.69,24.94-7.74,16.4-20.01,31.4-36.64,38.63-16.45,7.14-35.55,5.97-52.63,.52-17.08-5.46-32.56-14.9-47.86-24.26l43.77-50.7c8.62-9.97,17.38-20.09,28.42-27.3,11.03-7.21,24.83-11.27,37.56-7.88,12.74,3.38,19.77,13.21,18.63,26.34Z"/>
      <g>
        <path class="cls-2" d="M64.24,275.89c17.75-19.44,39.72-34.98,63.95-45.26,26.47-11.23,55.23-14.85,82.44-23.76,23.87-7.81,47.64-20.66,60.71-43,11.45-19.58,12.13-47.35-5.06-64.04-7.33-7.11-17.62-11.09-27.81-11.11-8.51,0-22.61,3.46-25.1,13.08-.63,2.45-.24,5.02,1.11,7.16"/>
        <path class="cls-2" d="M120.3,259.43c15.63-20.93,39.44-29.69,63.09-34.87s48.3-7.53,70.01-18.44c21.7-10.91,40.64-32.43,43.29-62.59"/>
        <path class="cls-1" d="M231.55,114.1c3.02-4.8,10.82-4.27,14.75-.18,3.93,4.08,4.77,10.22,4.6,15.88-.44,13.81-5.93,27.4-15.21,37.64-9.28,10.23-22.28,17.01-35.98,18.79"/>
        <path class="cls-2" d="M1.5,123.83c-.12-20.67,20.45-46.59,46.58-67.6C74.2,35.22,105.48,18.08,136.19,1.32"/>
        <path class="cls-2" d="M40.35,93.5c16.38-26.86,49.16-53.75,85.61-70.21"/>
        <path class="cls-2" d="M96.77,56.39c4.98-7.78,14.57-15.48,25.15-20.18"/>
      </g>
    </g>
    <path class="cls-3" d="M187.6,86.24c-6.4,19.46-17.86,27.46-28.38,19.81,2.5,1.14,5.06-.34,7.7-1.32s4.85-2.62,6.96-4.28c5.74-4.53,8.9-8.98,13.72-14.21Z"/>
  </g>
</svg>