<?xml version="1.0" encoding="UTF-8"?>
<svg id="Layer_2" data-name="Layer 2" xmlns="http://www.w3.org/2000/svg" viewBox="0 0 312.08 496.55">
  <defs>
    <style>
      .cls-1 {
        stroke-width: 2px;
      }

      .cls-1, .cls-2, .cls-3 {
        fill: none;
        stroke: #6d9887;
        stroke-miterlimit: 10;
      }

      .cls-3 {
        stroke-width: 3px;
      }

      .cls-4 {
        fill: #6d9887;
      }
    </style>
  </defs>
  <g id="Layer_1-2" data-name="Layer 1">
    <g>
      <path class="cls-4" d="M201.03,225.21c13.71-2.09,27.28,1.28,37.12,9.23,.13-7.72,2.42-15.74,6.55-22.91,4.97,3.94,10.01,7.94,13.57,13.25s5.56,12.15,3.91,19.11c-1.92,8.1-5.12,20.14-9.44,24.75-4.22,4.49-8.58,3.63-17.25,6.65-15.59,5.43-19.32,5.7-27.65,3.22-4.73-1.4-10.72-3.47-12.9-8.04,5.5-3.37,11-6.74,16.49-10.12,2.41-1.48,4.36-2.04,3.07-4.61-.89-1.78-3.28-3.12-4.56-4.63-2.93-3.47-5.21-7.53-6.73-11.97-.37-1.09-3.09-13.79-2.19-13.93Z"/>
      <path class="cls-4" d="M269.52,264.85c-18.31,9.19-32.06,6.71-34.06-6.14,.96,2.57,3.81,3.35,6.36,4.53s5.28,1.59,7.94,1.91c7.25,.87,12.65-.03,19.75-.3Z"/>
    </g>
    <g>
      <path class="cls-4" d="M105.88,98.17c5.6,2.81,10.35,7.72,11.99,13.77,1.65,6.05-.26,13.17-5.33,16.87s-13.11,2.98-16.8-2.09c10.45,10.68,20.9,21.36,31.36,32.04-4.47-1.28-8.93-2.55-13.4-3.83,8.03,13.82,18.23,29.14,34.09,31.14,13.32,1.68,26.14-7.35,33.03-18.87,6.89-11.52,9.07-25.16,11.12-38.43-5.41,4.76-10.82,9.52-16.24,14.28,8.42-15.7,9.63-35.08,3.23-51.7-2.76,7.62-8.24,14.22-15.22,18.34-6.09-3.54-9.48-10.59-10.34-17.59-.86-7,.44-14.06,1.73-20.99-4.74,5.9-12.31,9.4-19.88,9.21-4.36-.11-7.41-2.2-11.4-3.19-5.45-1.36-4.1-2.44-5.48,2.1-2.54,8.32-1.02,16.44-12.47,18.94Z"/>
      <path class="cls-4" d="M165.71,207.69c-2.29-32.11-10.53-63.8-24.17-92.96"/>
      <path class="cls-4" d="M142.93,154.52c5.37,3.79,10.74,7.58,16.12,11.38,2.78-11.93,5.57-23.86,8.35-35.79"/>
    </g>
    <g>
      <path class="cls-4" d="M164.34,326.08c8.25,2.53,13.58,11.12,14.44,19.71,.85,8.59-2,17.13-5.69,24.94-7.74,16.4-20.01,31.4-36.64,38.63-16.45,7.14-35.55,5.97-52.63,.52-17.08-5.46-32.56-14.9-47.86-24.26,14.59-16.9,29.18-33.8,43.77-50.7,8.62-9.97,17.38-20.09,28.42-27.3,11.03-7.21,24.83-11.27,37.56-7.88,12.74,3.38,19.77,13.21,18.63,26.34Z"/>
      <g>
        <path class="cls-3" d="M64.24,495.54c17.75-19.44,39.72-34.98,63.95-45.26,26.47-11.23,55.23-14.85,82.44-23.76,23.87-7.81,47.64-20.66,60.71-43,11.45-19.58,12.13-47.35-5.06-64.04-7.33-7.11-17.62-11.09-27.81-11.11-8.51,0-22.61,3.46-25.1,13.08-.63,2.45-.24,5.02,1.11,7.16"/>
        <path class="cls-3" d="M120.3,479.08c15.63-20.93,39.44-29.69,63.09-34.87s48.3-7.53,70.01-18.44c21.7-10.91,40.64-32.43,43.29-62.59"/>
        <path class="cls-1" d="M231.55,333.75c3.02-4.8,10.82-4.27,14.75-.18,3.93,4.08,4.77,10.22,4.6,15.88-.44,13.81-5.93,27.4-15.21,37.64-9.28,10.23-22.28,17.01-35.98,18.79"/>
        <path class="cls-3" d="M1.5,343.48c-.12-20.67,20.45-46.59,46.58-67.6,26.12-21.01,57.4-38.15,88.11-54.91"/>
        <path class="cls-3" d="M40.35,313.15c16.38-26.86,49.16-53.75,85.61-70.21"/>
        <path class="cls-3" d="M96.77,276.04c4.98-7.78,14.57-15.48,25.15-20.18"/>
      </g>
    </g>
    <g>
      <path class="cls-1" d="M135.53,.38c-6.03,14.77-15.14,28.85-26.51,40.98-12.41,13.27-27.55,23.43-40.83,35.76-11.64,10.82-22.25,24.09-25.15,38.94-2.54,13,2.43,26.92,15.1,30.16,5.41,1.38,11.84,.35,17.45-2.61,4.69-2.48,11.78-8.3,11.31-13.78-.12-1.39-.84-2.55-1.99-3.21"/>
      <path class="cls-1" d="M107.82,24.84c-4.58,14.89-16,26.16-28.03,35.61-12.02,9.44-25.15,17.79-35,29.5-9.85,11.71-16.14,27.86-11.8,43.54"/>
      <path class="cls-2" d="M74.52,129.05c-.74,3.25-5.14,5.26-8.09,4.39-2.94-.87-4.59-3.66-5.58-6.51-2.42-6.95-2.01-15.26,1.13-23.02,3.15-7.76,9-14.9,16.2-19.77"/>
      <path class="cls-3" d="M227.05,45.7c20.47,17.97,27.57,47.8,24.86,75.31-1.7,17.34-6.79,34.12-13,50.33-4.73,12.4-9.64,33.72-26.53,33.34"/>
      <path class="cls-1" d="M222.12,85.82c11.78,29.16,8.89,64.14-7.54,91.33"/>
      <path class="cls-1" d="M208.13,138.02c3.2,8.54,2.19,18.63-2.66,26.45"/>
    </g>
    <path class="cls-1" d="M223.22,88.4c-3.06-7.58-8.57-14.14-15.5-18.47"/>
    <path class="cls-1" d="M272.49,202.42c14.64,9.29,24.29,26.02,24.99,43.34"/>
    <path class="cls-3" d="M272.5,182.81c17.21,2.2,32.64,14.86,38.16,31.31"/>
    <path class="cls-4" d="M187.6,305.89c-6.4,19.46-17.86,27.46-28.38,19.81,2.5,1.14,5.06-.34,7.7-1.32s4.85-2.62,6.96-4.28c5.74-4.53,8.9-8.98,13.72-14.21Z"/>
  </g>
</svg>