<?xml version="1.0" encoding="UTF-8"?>
<svg id="Layer_2" data-name="Layer 2" xmlns="http://www.w3.org/2000/svg" viewBox="0 0 117.15 98.68">
  <defs>
    <style>
      .cls-1 {
        stroke-width: 2px;
      }

      .cls-1, .cls-2 {
        fill: none;
        stroke: #6d9887;
        stroke-miterlimit: 10;
      }

      .cls-2 {
        stroke-width: 3px;
      }

      .cls-3 {
        fill: #6d9887;
      }
    </style>
  </defs>
  <g id="Layer_1-2" data-name="Layer 1">
    <g>
      <path class="cls-3" d="M6.09,43.89c13.71-2.09,27.28,1.28,37.12,9.23,.13-7.72,2.42-15.74,6.55-22.91,4.97,3.94,10.01,7.94,13.57,13.25s5.56,12.15,3.91,19.11c-1.92,8.1-5.12,20.14-9.44,24.75-4.22,4.49-8.58,3.63-17.25,6.65-15.59,5.43-19.32,5.7-27.65,3.22-4.73-1.4-10.72-3.47-12.9-8.04,5.5-3.37,11-6.74,16.49-10.12,2.41-1.48,4.36-2.04,3.07-4.61-.89-1.78-3.28-3.12-4.56-4.63-2.93-3.47-5.21-7.53-6.73-11.97-.37-1.09-3.09-13.79-2.19-13.93Z"/>
      <path class="cls-3" d="M74.59,83.53c-18.31,9.19-32.06,6.71-34.06-6.14,.96,2.57,3.81,3.35,6.36,4.53s5.28,1.59,7.94,1.91c7.25,.87,12.65-.03,19.75-.3Z"/>
    </g>
    <path class="cls-1" d="M77.56,21.1c14.64,9.29,24.29,26.02,24.99,43.34"/>
    <path class="cls-2" d="M77.57,1.49c17.21,2.2,32.64,14.86,38.16,31.31"/>
  </g>
</svg>