<?xml version="1.0" encoding="UTF-8"?>
<svg id="Layer_1" data-name="Layer 1" xmlns="http://www.w3.org/2000/svg" viewBox="0 0 585.7 582.59">
  <defs>
    <style>
      .cls-1 {
        fill: #f9b894;
      }

      .cls-2 {
        fill: #c0805b;
      }

      .cls-3 {
        fill: #d99d5f;
      }

      .cls-4 {
        fill: #fff;
      }

      .cls-5 {
        fill: #86ccf4;
      }

      .cls-6 {
        fill: #f69d10;
        stroke: #f69d10;
        stroke-miterlimit: 10;
      }

      .cls-7 {
        fill: #dda684;
      }

      .cls-8 {
        fill: #527264;
      }

      .cls-9 {
        fill: #d48355;
      }

      .cls-10 {
        fill: #7d422c;
      }

      .cls-11 {
        font-family: CenturyGothic, 'Century Gothic';
        font-size: 17.4px;
        isolation: isolate;
      }

      .cls-12 {
        fill: #6d9887;
      }

      .cls-13 {
        fill: #c9b7ae;
      }

      .cls-14 {
        fill: #8599b2;
      }

      .cls-15 {
        fill: none;
      }

      .cls-16 {
        fill: #c4866a;
      }
    </style>
  </defs>
  <ellipse class="cls-13" cx="332" cy="551.56" rx="191.2" ry="15.4"/>
  <path class="cls-5" d="M105.9,523.96c-1.1,9.7-29.6,14.7-31,11.5-1.3-2.9,20.2-13.7,19.1-15.8-1.1-2.2-24.1,9.3-25.1,7.5-.9-1.7,16.8-18.5,29.4-12.8,3.7,1.6,8,5.6,7.6,9.6Z"/>
  <path class="cls-14" d="M438.7,492.06c-15.9,.9-27.8,14.2-27.3,28.9,.5,13,10.7,24.5,24.6,26.5h108.1c6.2-2.3,6.6-4.4,6.6-5.1,.1-2-2.6-3.3-8.6-7-7.1-4.5-7.2-5-10.5-7-11.1-6.5-19.5-5.8-29.7-10.1-14.9-6.4-13.2-15-26.5-22.2-7-3.9-18.4-7.5-36.7-4Z"/>
  <path class="cls-14" d="M525.5,533.46c-1.7,.3-4.2,.6-7.1,.5-4.1,0-10.1-.4-15.5-3.2-3.4-1.8-7.6-5.9-10-16.3,.1-1.3,1.1-9.3,6.6-12,6.3-3.2,17.7,1.4,23.3,13.7,.9,5.9,1.8,11.6,2.7,17.3Z"/>
  <circle class="cls-4" cx="527.6" cy="534.06" r="3.3"/>
  <path class="cls-5" d="M166.1,531.46c-2,9.5-30.9,11.9-31.9,8.6-1-3,21.4-11.7,20.5-13.9-.9-2.3-24.9,7-25.6,5.1-.7-1.8,18.5-16.9,30.5-10,3.5,1.9,7.4,6.3,6.5,10.2Z"/>
  <path class="cls-5" d="M193.2,491.16c-1.6,9.6-30.4,13.1-31.5,9.9-1.1-3,20.9-12.6,19.9-14.8-1-2.3-24.6,8-25.4,6.2s17.8-17.6,30.1-11.2c3.5,1.7,7.5,5.9,6.9,9.9Z"/>
  <path class="cls-5" d="M81.8,569.26c-.8,9.7-29.1,15.6-30.6,12.5-1.3-2.9,19.8-14.3,18.6-16.4-1.2-2.2-23.8,10-24.8,8.3s16.2-19,29-13.7c3.7,1.5,8.2,5.3,7.8,9.3Z"/>
  <rect class="cls-9" x="174.7" y="394.36" width="308.8" height="157.2"/>
  <rect class="cls-2" x="174.7" y="381.06" width="308.8" height="15.1"/>
  <rect class="cls-9" x="170.3" y="359.66" width="319.5" height="21.4"/>
  <polygon class="cls-3" points="170.3 359.66 238.8 299.86 401.7 299.86 487.2 359.66 170.3 359.66"/>
  <path class="cls-10" d="M282.8,326.26c-1.3,3.1-2.5,6.3-3.8,9.4h98.7c-2.3-3.1-4.6-6.3-6.9-9.4h-88Z"/>
  <path class="cls-16" d="M249.5,194.86c7.9,1.8,16.6,4.2,25.8,7.4,13.3,4.7,24.7,10.1,34.1,15.3,6.5,7.6,13.3,16.4,20.1,26.2,6.9,10.1,12.7,19.8,17.5,28.7,.7,3.1,2.2,11.5-2.1,20.8-2.9,6.4-7.3,10.4-9.8,12.4-10.4-.5-19.9-1-28.5-1.5-7-.4-13.7-.8-22.6-1.8-2.5-.3-4.5-.6-5.9-.7-.5-.2-3.5-1.6-4.7-4.9-1.4-3.8,.5-7,.8-7.4-5-.6-8.6-1.8-10.8-2.6-1.7-.7-3-1.3-3.7-2.7-.7-1.4-.6-3.1-.5-4.4,.1-1,.3-1.9,.4-2.4-.8-.1-3.8-.7-6.1-3.3-3-3.6-2-7.9-1.8-8.4,.8-.6,1.9-1.4,3.3-1.6,4-.7,7.3,2.8,8.2,1.9,.4-.3,.3-1.3-1.1-3.8-7.7-9.2-15.4-18.3-23.2-27.5l-13.4-8.9,24-30.8Z"/>
  <path class="cls-1" d="M251.5,188.26c9.5,2.6,20.1,6.1,31.5,10.9,11,4.6,20.7,9.6,28.9,14.4,6.5,7.7,13.4,16.8,20.1,27.2,6.4,10,11.6,19.6,15.8,28.2,.2,1.8,.4,7.6-3.4,13.4-4,6.1-9.8,8.3-11.6,8.9-.7-1.7-1.9-4.2-3.7-7.2-2.8-4.6-5.2-6.7-4.4-8.6,.5-1.1,1.6-.8,4.4-2.5,3.1-1.9,4.7-4,4.7-4,0,0-2.2,2.7-6.2,4.1-1.3,.5-2.5,.9-3.7,.7-3.7-.4-3.9-5.7-8.1-11.1-3.1-4.1-8.2-7.8-16.6-14-.7-.5-2.6-1.9-2.6-3.7,0-1.1,.7-1.8,1.4-2.6,2.9-3.4,4.4-7.3,4.2-7.5-.2-.2-2.5,2-4.3,4.6-.7,1-1.4,2.2-2.7,3.7-.6,.7-1.2,1.2-1.5,1.6-.4-.1-1.2-.3-2.1-.7-6.2-2.2-9.8-5.6-16.5-11-2.2-1.8-4.5-3.5-6.8-5.3-5.5-4.4-15.5-10.4-35.3-17.3,6.1-7.4,12.3-14.8,18.5-22.2Z"/>
  <path class="cls-7" d="M308.6,255.66c-4.7-3.2-10.1-7.4-15.5-13-3.6-3.7-6.5-7.4-8.9-10.7-3-1.9-6-3.9-8.9-5.8,1.3,1.1,2.8,2.6,4.3,4.5,1.6,2.2,2.6,4.3,3.3,5.9,.7,2.2,1.7,5.5,2.9,9.6,1.7,5.7,3,10.1,3.1,10.1,0,0,0-.2-.2-1.2,6.5,.2,13.2,.4,19.9,.6Z"/>
  <path class="cls-12" d="M325.2,280.26c2.9-2,7.2-4.4,12.6-6.1,9.8-2.9,18.2-1.8,22.6-.9,1.7,.9,8.2,4.6,10.3,12.1,2.4,8.5-1.6,18.4-10.3,24.3-9.7,5.6-18.3,9.4-24.7,11.9-6.9,2.7-12.7,4.5-15.6,5.4-5.6,1.7-10.6,3-14.6,4-2.4-3.4-5.2-7.7-8.2-12.7-1.2-2.1-4.9-8.2-9-16.6-2.9-6-6.2-13.5-9.4-22.3-.1-.6-2.6-11.6,5.7-19.7,5.6-5.4,13.9-7.4,21.4-5,3,1.4,9.8,5.1,14.6,12.9,3.1,5,4.2,9.7,4.6,12.7Z"/>
  <path class="cls-8" d="M305.3,330.86l19.7-50.7c-.3-2.4-1.1-5.8-2.8-9.5-1.5-3.3-3.4-5.7-4.9-7.5-1.3-1.7-6.2-7.4-14.6-8.9-4.6-.8-8.5-.1-10.7,.5-1.4,.5-7.8,2.8-11.3,9.6-4.4,8.6-.2,16.8,.2,17.6,2.1,6.7,4.8,14.2,8.6,22.1,5,10.8,10.6,19.7,15.8,26.8Z"/>
  <path class="cls-1" d="M237,205.86c9.5,5.2,19.1,10.3,28.6,15.5,3.5,1.9,7.1,3.8,10.6,5.8,2.6,2.9,6.1,7.3,8.8,13.4,2.1,4.7,3.1,9.1,3.6,12.4,3.1,7.3,7.1,11.5,10.2,14,3.8,3,7.8,4.8,15.5,10.9,1.7,1.3,3.1,2.5,4,3.3,.3,.4,2.1,2.5,1.8,5.5-.3,3.3-2.8,5.1-3.2,5.4-.6,.5-4.7,3.5-9.8,2.5-2.5-.5-4.3-1.7-5.2-2.5-9.9-4.1-21.2-9.7-33-17.3-2.8-1.8-10-5-14.8-10.4-1.1-1.3-3.4-4.1-5.4-6.8-1.9-2.6-2.9-3.9-3.6-5.3-1.5-2.9-1.3-4.2-2.7-8.4-.5-1.6-1.4-3.9-2.7-6.6-2.5-2.9-5.8-6.3-10-9.4-1.8-1.3-3.6-2.5-5.2-3.5,4.2-6.2,8.4-12.3,12.5-18.5Z"/>
  <polygon class="cls-16" points="296.6 244.96 288.6 252.86 288.4 250.26 295.1 243.16 296.6 244.96"/>
  <polygon class="cls-14" points="232.4 234.56 261.6 186.16 207.2 155.36 178.1 203.86 232.4 234.56"/>
  <path class="cls-12" d="M347.2,136.16c-1.6-1.2-4.9-3.4-9.8-4.1-4.8-.7-8.6,.3-10.4,1-1.1,.5-8,3.4-9.7,10-2.1,8.2,5.6,15.2,7.3,16.8,4.6,4.3,9.9,5.7,17.2,7.7,4.6,1.3,6.8,1.3,12.7,3.2,4.1,1.3,7.4,2.7,9.6,3.7,.9-2.3,2.3-5.8,4.1-10,3.1-7,4.5-9.5,6-13.1,1.7-4,3.6-10,4.4-18.1-.1-1.3-.6-6.3-4.8-10.3-5.4-5.3-12.5-4.5-13.4-4.3-1.5,.5-6.8,2.3-10.3,7.8-2.7,3.8-2.9,7.9-2.9,9.7Z"/>
  <path class="cls-8" d="M363.8,174.26l-16.9-38.1c.2-1.9,.6-4.5,1.8-7.4,.9-2.2,1.6-4.1,3.4-6,3.1-3.3,6.9-4.1,8.1-4.3,4.5-.9,8,.5,8.7,.8,5.8,2.4,8.1,7.7,8.6,9,1.7,4.5,.9,8.6,.5,10.1-1.3,8.2-3.6,14-5.6,17.8-1.2,2.2-3,5.2-5.3,10.3-1.6,3.1-2.6,5.9-3.3,7.8Z"/>
  <path class="cls-12" d="M418.76,227.41c-.4-1.3-1.5-3.8-4-6.1-2.5-2.2-5-3.1-6.3-3.4-.8-.2-5.9-1.1-9.3,2-4.3,3.9-2.6,10.8-2.2,12.4,1,4.2,3.5,7.1,6.9,10.9,2.2,2.5,3.4,3.4,6,6.6,1.9,2.3,3.2,4.4,4.1,5.8,1.4-1,3.5-2.4,6.2-4.2,4.5-2.9,6.2-3.7,8.5-5.2,2.5-1.7,5.9-4.4,9.4-8.7,.5-.8,2-3.9,1.2-7.7-1.1-5.1-5.5-7.3-6-7.6-1-.3-4.8-1.3-8.9,.5-3.2,1.5-4.9,3.7-5.6,4.7Z"/>
  <path class="cls-8" d="M413.76,255.61l4.9-28.3c.8-1,2.1-2.4,3.9-3.6,1.3-.9,2.5-1.7,4.2-2.1,3-.7,5.5,.3,6.3,.6,2.9,1.2,4.4,3.4,4.7,3.8,2.4,3.6,1.7,7.5,1.5,8.4-.7,3.3-2.8,5.2-3.6,6-3.9,4.2-7.4,6.6-10,8-1.5,.8-3.7,1.8-6.9,3.9-2.2,1.3-3.9,2.5-5,3.3Z"/>
  <path class="cls-8" d="M495.38,159.77c-.1-1.9-.7-5.9-3.3-10.1-2.6-4.1-5.9-6.3-7.6-7.2-1.1-.5-7.8-3.8-13.9-.7-7.6,3.8-7.8,14.2-7.9,16.6-.2,6.3,2.2,11.2,5.5,18,2.1,4.3,3.5,6,5.9,11.6,1.7,4,2.9,7.4,3.6,9.6,2.3-.8,5.9-2.1,10.3-3.5,7.3-2.3,10.1-2.8,13.8-4.1,4.1-1.4,9.9-3.9,16.5-8.6,.9-1,4.3-4.6,4.6-10.4,.4-7.5-4.9-12.4-5.6-13-1.3-.8-6.2-3.6-12.6-2.7-4.7,.8-8,3.3-9.3,4.5Z"/>
  <path class="cls-12" d="M477.58,197.27l17.6-37.8c1.5-1.1,3.8-2.5,6.8-3.6,2.2-.8,4.1-1.5,6.7-1.4,4.5,.2,7.6,2.6,8.6,3.3,3.6,2.8,4.9,6.4,5.1,7.1,2,6-.5,11.2-1.2,12.4-2.3,4.3-5.9,6.3-7.3,7-7,4.5-12.9,6.4-17.1,7.4-2.4,.6-5.9,1.2-11.2,2.8-3.4,1.1-6.1,2.1-8,2.8Z"/>
  <path class="cls-8" d="M424.8,80.96c-.7-1.3-2.3-3.8-5.3-5.8s-5.9-2.5-7.3-2.6c-.9,0-6.4-.2-9.6,3.7-4,4.9-1,12-.3,13.6,1.8,4.3,4.9,6.9,9.2,10.5,2.7,2.3,4.2,3,7.5,6.1,2.4,2.2,4.2,4.1,5.3,5.4,1.3-1.3,3.4-3.2,5.9-5.4,4.3-3.8,6-5,8.1-6.9,2.4-2.2,5.5-5.6,8.6-10.8,.3-.9,1.5-4.4,0-8.4-2-5.2-7-6.9-7.7-7.1-1.2-.2-5.3-.6-9.4,2-3,1.8-4.4,4.5-5,5.7Z"/>
  <path class="cls-12" d="M424.2,111.76l.5-30.9c.7-1.2,1.8-2.9,3.5-4.5,1.2-1.2,2.3-2.2,4.1-3,3.1-1.3,5.9-.6,6.8-.4,3.3,.8,5.2,2.8,5.6,3.3,3.2,3.4,3,7.7,3,8.7-.2,3.6-2.1,6-2.8,6.9-3.4,5.1-6.8,8.3-9.3,10.2-1.5,1.1-3.6,2.6-6.7,5.3-2.1,1.8-3.7,3.3-4.7,4.4Z"/>
  <path class="cls-12" d="M510.63,14.16c-.7-1.8-2.2-5.5-5.9-8.8-3.6-3.2-7.3-4.5-9.2-5-1.2-.2-8.5-1.6-13.6,2.9-6.3,5.6-3.8,15.7-3.2,18.1,1.5,6.1,5.1,10.3,10,15.9,3.1,3.6,5,4.9,8.8,9.7,2.7,3.4,4.7,6.4,6,8.4,2-1.4,5.1-3.6,9-6,6.5-4.1,9-5.4,12.3-7.6,3.6-2.4,8.6-6.3,13.7-12.6,.7-1.2,3-5.6,1.8-11.2-1.6-7.4-7.9-10.6-8.8-11.1-1.5-.5-6.9-1.9-12.9,.7-4.5,1.9-7,5.2-8,6.6Z"/>
  <path class="cls-8" d="M503.33,55.06l7.1-41.1c1.2-1.5,3-3.4,5.6-5.2,1.9-1.3,3.6-2.5,6.1-3.1,4.4-1,8,.5,9.2,.9,4.2,1.8,6.4,4.9,6.8,5.5,3.5,5.2,2.4,10.9,2.1,12.2-1.1,4.7-4,7.6-5.2,8.7-5.6,6.1-10.8,9.6-14.5,11.7-2.2,1.2-5.4,2.7-10.1,5.6-3.1,2-5.5,3.7-7.1,4.8Z"/>
  <path class="cls-12" d="M565.84,99.5c0-1.3-.3-3.9-2-6.7-1.6-2.8-3.7-4.3-4.8-5-.7-.4-5.1-2.7-9.2-.8-5.1,2.3-5.5,9.2-5.6,10.8-.3,4.2,1.2,7.5,3.2,12,1.3,2.9,2.2,4.1,3.6,7.8,1,2.7,1.7,4.9,2.1,6.5,1.6-.5,4-1.2,6.9-2,4.9-1.3,6.7-1.6,9.3-2.3,2.8-.8,6.7-2.3,11.1-5.2,.6-.6,3-3,3.3-6.7,.5-5-2.9-8.3-3.3-8.7-.9-.6-4-2.6-8.3-2.1-3.2,.2-5.4,1.7-6.3,2.4Z"/>
  <path class="cls-8" d="M553.14,123.9l12.6-24.6c1-.7,2.6-1.6,4.6-2.2,1.5-.4,2.8-.9,4.5-.7,3,.2,5,1.9,5.6,2.4,2.3,2,3.1,4.4,3.2,4.8,1.2,4-.6,7.4-1.1,8.2-1.6,2.8-4,4-5,4.5-4.8,2.8-8.7,3.9-11.5,4.5-1.6,.3-3.9,.6-7.5,1.6-2.3,.5-4.2,1.1-5.4,1.5Z"/>
  <path class="cls-12" d="M488.6,268.46c-.8-.8-2.7-2.3-5.5-3.1-2.8-.8-5.1-.4-6.2-.2-.7,.2-4.9,1.4-6.4,5.2-1.8,4.7,2.2,9.3,3.1,10.4,2.4,2.8,5.4,4.1,9.6,5.7,2.6,1.1,3.9,1.3,7.2,2.7,2.3,1.1,4.2,2.1,5.4,2.8,.7-1.3,1.8-3.3,3.1-5.6,2.3-3.9,3.3-5.2,4.5-7.3,1.3-2.3,2.8-5.6,3.9-10.3,0-.8,.1-3.8-2.1-6.4-2.8-3.5-7-3.5-7.6-3.5-.9,.2-4.2,.9-6.6,3.8-1.9,2.4-2.3,4.8-2.4,5.8Z"/>
  <path class="cls-8" d="M495.6,292.06l-7.3-23.6c.2-1.1,.7-2.6,1.6-4.3,.7-1.2,1.2-2.3,2.4-3.3,2-1.7,4.4-1.9,5.1-2,2.7-.2,4.7,.9,5.1,1.1,3.3,1.8,4.2,5.1,4.4,5.9,.7,2.8-.1,5.1-.4,6-1.3,4.7-3.1,8-4.6,10-.8,1.2-2.1,2.9-3.8,5.7-1.1,1.9-1.9,3.5-2.5,4.5Z"/>
  <path class="cls-12" d="M569.6,229.86c-.4-.8-1.4-2.3-3.2-3.5s-3.5-1.5-4.4-1.6c-.5,0-3.9-.1-5.8,2.2-2.4,2.9-.6,7.2-.2,8.2,1.1,2.6,3,4.2,5.5,6.3,1.6,1.4,2.5,1.8,4.6,3.7,1.4,1.3,2.5,2.5,3.2,3.3,.8-.8,2-1.9,3.6-3.3,2.6-2.3,3.6-3,4.9-4.2,1.4-1.3,3.3-3.4,5.2-6.5,.2-.6,.9-2.7,0-5.1-1.2-3.2-4.2-4.2-4.6-4.3-.7-.1-3.2-.4-5.7,1.2-1.8,1.3-2.7,2.9-3.1,3.6Z"/>
  <path class="cls-8" d="M569.2,248.46l.3-18.7c.4-.7,1.1-1.7,2.1-2.7,.8-.7,1.4-1.4,2.5-1.8,1.9-.8,3.6-.4,4.1-.2,2,.5,3.2,1.7,3.4,2,1.9,2.1,1.8,4.7,1.8,5.3-.1,2.2-1.2,3.6-1.7,4.2-2.1,3.1-4.1,5-5.6,6.2-.9,.7-2.2,1.6-4.1,3.2-1.2,1-2.1,1.9-2.8,2.5Z"/>
  <path class="cls-6" d="M327.7,453.46c2.3,0,5.8,.1,10,1.5,4.1,1.4,7,3.4,8.7,4.9,.7-2.2,1.6-5.9,.9-10.3-.2-2-.7-5-2.9-7.9-.5-.6-.9-1-1.2-1.4-.5,.1-1,.2-1.7,.3-4.3,1.2-7.1,3.7-8.2,4.6-3.3,3.1-4.9,6.5-5.6,8.3Z"/>
  <path class="cls-6" d="M338.1,457.46c-1.5,4.3-3,8.6-4.5,12.9,1.2,.8,2.6,2.2,3.9,3.9,1.4,1.9,2.2,3.6,2.7,4.9,4.1-.3,8.2-.7,12.3-1,.1-2,0-6.5-2.7-11.3-4-6.6-10.1-8.8-11.7-9.4Z"/>
  <path class="cls-6" d="M336.2,456.86c-1.3,3.4-2.6,6.7-3.7,10.2-.3,.8-.6,1.7-.9,2.6-1.2-.1-3-.2-5.1,.2-2.1,.5-3.7,1.3-4.8,2-3.1-2.7-6.3-5.5-9.4-8.1,1.2-1.5,4.1-5.1,9.2-7.1,7.1-2.7,13.1-.4,14.7,.2Z"/>
  <path class="cls-6" d="M331.7,472.06c-.9-.1-2.2-.2-3.7,0-2.6,.3-4.4,1.4-5.6,2.1-1.9,4.6-3.8,9.3-5.7,13.9,.2,1.3,.8,3.2,2.2,5.3,1.3,1.9,2.7,3,3.6,3.7,1.2,.1,3.2,.1,5.6-.7,1.9-.7,3.2-1.6,4.1-2.3,1.9-4.6,3.6-9.3,5.5-13.9-.2-1-.8-2.4-1.7-3.9-1.5-2.3-3.3-3.5-4.3-4.2Z"/>
  <path class="cls-6" d="M310.9,465.76c3,2.4,6.1,4.9,9.2,7.4-1.7,4.4-3.6,8.8-5.3,13.1-3.9-.1-7.9-.1-11.8-.2,.7-3.4,1.9-7.4,3.7-11.8,1.3-3.1,2.8-6,4.2-8.5Z"/>
  <path class="cls-6" d="M318.2,511.36c.7-2.1,1.4-4.2,2.2-6.3,.7-2,1.4-3.8,2.2-5.7,2.2,0,3.8-.3,5-.7,.9-.2,1.6-.5,2.1-.7,1.7-.7,3.1-1.6,3.9-2.3,3.1,2.4,6.1,4.9,9.3,7.3-.8,1.5-3.6,6.1-9.5,8.6-7.3,3.3-14,.4-15.2-.2Z"/>
  <path class="cls-6" d="M302.3,488.66h7.2c1.7,0,3.4-.1,5.1-.1,.5,1.6,1.3,3.8,2.8,6.1,1.3,2,2.7,3.4,3.7,4.4-1.5,3.9-3.1,7.8-4.6,11.7-1.9-.7-6.7-2.9-10.3-8.2-4.1-5.9-4-12-3.9-13.9Z"/>
  <path class="cls-6" d="M344,501.56c-3.1-2.3-6.3-4.8-9.4-7.1,1.6-4.4,3.4-8.8,5-13.3,4.1-.2,8.2-.5,12.3-.8-.8,3.7-2,8-3.8,12.5-1.3,3.2-2.7,6.1-4.1,8.7Z"/>
  <path class="cls-6" d="M310.8,461.96c1.2-1.4,2.8-3.2,5.2-4.9,1.6-1,3-1.7,4.3-2.3-.7-.8-2-2-4.1-2.8-.3-.1-2.8-1.2-5.6-.6-.8,.1-1.9,.5-3.1,.9-1.9,.7-1.9,1-3.5,1.9-2.6,1.2-5,1.5-7.8,1.9-.7,.1-1.3,.1-1.6,.2-.3,.3-.6,.8-.6,1.2,.2,1.8,5.8,3.4,16.8,4.5Z"/>
  <path class="cls-6" d="M291.9,509.56c-.2-1-.6-4.5,1.4-8.1,2.6-4.4,6.8-5.6,7.7-5.8,.3,1.7,1,4.2,2.4,6.7,1.3,2.2,2.6,3.7,3.7,4.9-3.9-1.7-6.4-1.4-8-.7-2.9,1.3-4.6,4.5-6.3,3.9-.4-.1-.8-.7-.9-.9Z"/>
  <path class="cls-6" d="M338.1,527.16c.8-.7,3.4-3,4.2-7.1,.9-5-1.6-8.7-2.2-9.4-1.4,1-3.5,2.4-6.3,3.5-2.3,.8-4.4,1.2-5.9,1.4,4.2,1.2,5.8,3,6.6,4.5,1.4,2.8,.6,6.4,2.2,7.1,.4,.4,1,.2,1.4,0Z"/>
  <path class="cls-6" d="M354.3,477.76c0-1.6-.1-4.1-.9-6.7-.6-2.1-1.5-3.8-2.2-5,1-.1,2.8-.2,4.9,.5,.3,.1,2.8,.9,4.6,3.1,.5,.6,1.2,1.5,1.9,2.8,.9,1.7,.8,2.1,1.5,3.6,1.2,2.4,2.9,4.3,4.8,6.4,.5,.5,.9,.9,1.2,1.3,0,.6,0,.9-.3,1.2-1.4,1.1-6.6-1.2-15.5-7.2Z"/>
  <path class="cls-6" d="M313.8,511.66c.8,.5,1.7,.8,2.7,1.3,1.2,.5,2.2,.9,3.2,1.3-2.3,1.4-3,2-3.2,2.3,0,0-.2,.3-.5,.7-.1,.1-.2,.2-.3,.5-.6,.8-1.2,1.4-1.5,1.7v-2.1c0-.9,.1-1.5,.2-2,.2-.8,.1-2.1-.6-3.7Z"/>
  <g>
    <path d="M260.7,471.26c-3.6-1.2-7.2-2.3-10.8-3.5,0-.1,.1-.2,.1-.3,3.7-2.2,7.5-3.9,11.4-5.3-2.7-1.2-5.2-2.4-7.9-3.6,.2-.5,.3-.8,.6-1.3,3.4,1.6,6.8,3.2,10.2,4.9,0,.1-.1,.1-.1,.2-3.7,1.2-7.4,2.8-11.1,4.9,2.7,.9,5.3,1.9,8.1,2.8-.3,.4-.4,.8-.5,1.2Z"/>
    <path d="M258.3,449.36c4.3,.2,8.5,.7,12.6,1.4-.2,.3-.5,.7-.7,1-1.4-.2-2.8-.3-4.2-.6-.9,1.5-1.9,3-2.7,4.5,.8,1.2,1.5,2.3,2.3,3.5-.2,.3-.5,.8-.6,1.2-2.6-3.4-4.9-7.1-7-10.9,.1,.1,.3,0,.3-.1Zm1.9,1.4c.8,1.4,1.6,2.7,2.4,4.1,.7-1.3,1.4-2.4,2.2-3.7-1.4-.2-3.1-.3-4.6-.4Z"/>
    <path d="M263,444.06c-.3-.2-.6-.5-.9-.7,1.4-2,2.9-3.8,4.4-5.7,.2,.2,.6,.5,.8,.7-.6,.7-1.3,1.5-1.9,2.2,2.7,2.2,5.3,4.3,8,6.5-.2,.3-.5,.6-.7,.9-2.7-2.1-5.3-4.3-8-6.4-.5,1-1.1,1.9-1.7,2.5Z"/>
    <path d="M267.8,436.46c.2-.3,.6-.6,.8-.9,1.6,1.6,3.4,3.1,5,4.8,.6,.6,.9,.9,1.2,1,.3,.2,.7,.5,1,.5s.8,0,1.2-.1c.5-.1,.8-.3,1.2-.7,.2-.2,.5-.6,.6-.9s.2-.7,.1-1c0-.3-.1-.7-.3-1.2-.1-.2-.5-.7-1.2-1.4-1.5-1.7-3.1-3.4-4.6-5.1,.3-.2,.6-.6,.9-.8,1.5,1.7,3,3.4,4.6,5.1,.7,.8,1.2,1.4,1.4,2.1,.2,.6,.3,1.3,.2,2s-.5,1.4-1,2-1.3,1-2.1,1.2-1.5,.1-2.2-.2c-.5-.2-1-.7-1.9-1.5-1.6-1.9-3.2-3.4-4.9-4.9Z"/>
    <path d="M276.1,428.36c.7-.6,1.3-1,2-1.6,1-.8,1.9-1.4,2.3-1.6,.7-.3,1.4-.3,2.1-.2,.7,.1,1.2,.6,1.6,1.2,.3,.5,.6,1,.6,1.6s-.1,1-.5,1.6c-.3,.5-.8,1-1.6,1.6,2.2,.6,4.3,1.2,6.4,2-.3,.2-.7,.5-1,.8-2.1-.7-4.2-1.3-6.4-1.9-.1,.1-.3,.2-.5,.5,1.2,1.4,2.2,2.8,3.4,4.2-.2,.2-.6,.5-.8,.7-2.7-3.1-5.1-6-7.6-8.9Zm1.6,.1c.8,1,1.6,2,2.4,3,.6-.5,1-.8,1.6-1.3s1-.9,1.3-1.3c.2-.3,.3-.7,.3-1s-.1-.7-.3-1-.5-.6-.9-.7c-.3-.1-.7-.1-1.2,0-.3,.1-.9,.5-1.6,.9-.4,.5-1,.9-1.6,1.4Z"/>
    <path d="M284.6,422.16c.3-.2,.7-.5,1-.7,.8,1.4,1.7,2.7,2.6,4.1,1.7-1,3.4-2,5.2-2.9-.7-1.4-1.5-2.8-2.2-4.3,.3-.2,.7-.3,1-.6,1.7,3.4,3.5,6.7,5.2,10.2-.3,.1-.6,.3-.9,.5-.8-1.6-1.7-3.2-2.6-4.9-1.7,.9-3.5,1.9-5.1,2.9,.9,1.5,2,3.1,2.9,4.6-.3,.2-.6,.3-.9,.6-2.2-3.1-4.1-6.3-6.2-9.5Z"/>
    <path d="M294.7,416.66c.3-.1,.7-.3,1.2-.5,1.5,3.5,3.1,7,4.6,10.4-.3,.1-.7,.2-.9,.5-1.7-3.6-3.3-7.1-4.9-10.4Z"/>
    <path d="M300.9,424.06c.2-.3,.5-.6,.6-.9,1,.9,2,1.3,2.8,.9,.3-.1,.6-.3,.8-.6,.2-.2,.3-.6,.5-.9,.1-.3,0-.7-.1-.9-.1-.3-.3-.7-.7-.9-.5-.3-1.3-.7-2.4-1-1.2-.3-1.9-.6-2.2-.8-.6-.3-1-.8-1.3-1.4-.2-.5-.2-.9-.1-1.4s.2-.9,.6-1.3c.3-.3,.8-.7,1.3-.8,.6-.2,1-.2,1.6-.1,.6,.1,1.3,.3,2,.9-.2,.3-.5,.7-.7,.9-.6-.3-1.2-.6-1.5-.7-.3-.1-.7,0-1,.1-.5,.1-.8,.5-.9,.8-.2,.3-.2,.7,0,1.2,.1,.2,.2,.5,.5,.6,.2,.2,.5,.3,.8,.5,.2,.1,.8,.2,1.9,.6,1.2,.3,2.1,.7,2.6,1.2,.6,.5,.9,.9,1,1.5,.2,.8,.2,1.5-.1,2.3s-.9,1.3-1.7,1.6c-.6,.2-1.2,.2-1.9,.1-1-.6-1.7-.9-2.4-1.5Z"/>
    <path d="M305.6,413.56c-.1-.3-.2-.7-.3-1,2.1-.7,4.3-1.3,6.5-1.7,.1,.3,.1,.7,.2,1-.9,.2-1.7,.5-2.7,.6,.9,3.4,1.7,6.6,2.7,10-.3,.1-.7,.2-1,.2-.9-3.2-1.9-6.6-2.8-9.9-.9,.4-1.7,.6-2.6,.8Z"/>
    <path d="M319.2,409.16c1.9-.2,3.5,.1,4.8,1.2s2,2.4,2.1,4.1c.1,1.6-.3,3.1-1.4,4.4-1,1.3-2.2,2-3.7,2.2s-2.9-.1-4.3-1c-1.3-.9-2.2-2.2-2.6-3.8-.2-1-.2-2.1,.1-3.1,.3-1,.9-1.9,1.9-2.6,1-.8,1.9-1.3,3.1-1.4Zm.2,1.1c-.9,.1-1.7,.5-2.4,1-.7,.6-1.2,1.3-1.5,2.1-.2,.8-.3,1.6-.1,2.6,.2,1.3,.9,2.3,2,3.1,1,.8,2.2,1,3.4,.9,.8-.1,1.5-.5,2.2-.9,.7-.5,1.2-1.2,1.5-1.9,.3-.8,.5-1.6,.5-2.6-.1-.9-.3-1.7-.8-2.4s-1.2-1.3-2-1.6c-1.1-.3-1.9-.4-2.8-.3Z"/>
    <path d="M328.2,408.76h2.4c1.4,0,2.3,.1,2.8,.2,.7,.1,1.3,.6,1.7,1,.5,.6,.6,1.2,.6,1.9,0,.6-.2,1.2-.6,1.6s-.7,.8-1.3,1c-.6,.2-1.3,.3-2.2,.3,1.4,1.7,2.6,3.6,3.7,5.5-.5,0-.9,0-1.3-.1-1.2-1.9-2.4-3.6-3.8-5.3h-.7c0,1.7,.1,3.5,.1,5.3h-1c-.2-3.9-.3-7.6-.4-11.4Zm1.3,1c0,1.3,0,2.6,.1,3.8h2c.8,0,1.4-.1,1.7-.2s.7-.3,.9-.7c.2-.3,.3-.7,.3-1s-.1-.7-.2-1c-.2-.3-.5-.6-.8-.7-.3-.1-.9-.2-1.7-.2-.9,0-1.6,0-2.3,0Z"/>
    <path d="M338.3,408.96c.3,0,.8,.1,1.2,.1-.3,3.8-.8,7.5-1.2,11.4-.3,0-.7-.1-1-.1,.3-3.9,.7-7.7,1-11.4Z"/>
    <path d="M339.9,418.46c.3-.1,.7-.3,1-.5,.5,1.3,1.2,2.1,2,2.2,.3,0,.7,0,1-.1s.6-.3,.8-.6,.3-.6,.5-.9c.1-.3,0-.8-.1-1.2-.2-.6-.8-1.3-1.6-2.1s-1.4-1.4-1.5-1.7c-.3-.6-.5-1.2-.3-1.9,.1-.5,.2-.9,.6-1.3s.7-.7,1.2-.8,1-.2,1.5-.1c.6,.1,1,.3,1.5,.7,.5,.3,.9,.9,1.3,1.7-.3,.1-.7,.3-1,.5-.3-.7-.7-1-.9-1.3-.2-.2-.6-.3-1-.5-.5-.1-.9,0-1.3,.2-.3,.2-.6,.6-.6,.9v.7c.1,.2,.2,.5,.5,.8,.1,.1,.6,.6,1.3,1.4,.8,.9,1.4,1.6,1.6,2.3,.2,.6,.3,1.3,.2,1.7-.1,.8-.6,1.5-1.3,2-.7,.5-1.4,.7-2.2,.6-.6-.1-1.2-.3-1.6-.8-.9-.4-1.2-1.1-1.6-1.9Z"/>
    <path d="M350.6,410.86c.3,.1,.8,.2,1.2,.2-.3,1.4-.7,2.8-1,4.2,1.9-1,3.8-2,5.8-2.9,.6,.1,1,.3,1.6,.5-2.4,1-4.8,2.2-7,3.4,1.4,2.6,2.7,5.1,3.7,7.7-.5-.1-.9-.2-1.4-.5-.9-2.2-2-4.3-3.1-6.4-.5,1.7-.8,3.5-1.3,5.2-.3-.1-.7-.1-1-.2,.8-3.8,1.7-7.5,2.5-11.2Z"/>
    <path d="M359.8,425.56c2-3.4,3.9-6.6,6-9.9q.1,0,.2,.1c.2,3.5,.3,7.1,.2,10.4,2.8-2.1,5.7-4.2,8.7-6l.1,.1c-1.5,3.6-3,7.2-4.5,10.7-.3-.2-.6-.3-.9-.6,1.2-2.6,2.2-5.1,3.2-7.7-2.6,1.6-5.1,3.5-7.5,5.3-.1,0-.1-.1-.2-.1,.1-3,.1-6,0-9.2-1.5,2.3-2.9,4.8-4.4,7.1-.4,0-.6-.1-.9-.2Z"/>
    <path d="M378.7,422.56c.3,.2,.7,.5,1,.7-1.3,1.9-2.7,3.8-3.9,5.7-.5,.7-.7,1.2-.8,1.3-.2,.3-.3,.8-.3,1.2,0,.3,.1,.7,.3,1.2,.2,.3,.5,.7,.8,.9s.6,.3,.9,.5c.3,.1,.7,.1,1,0s.7-.2,1-.5c.2-.2,.7-.6,1.2-1.4,1.4-1.9,2.9-3.6,4.3-5.5,.3,.2,.7,.5,.9,.8-1.5,1.9-2.9,3.6-4.4,5.5-.7,.8-1.3,1.4-1.9,1.7s-1.2,.6-2,.6c-.7,0-1.4-.2-2.1-.7s-1.2-1.2-1.4-1.9c-.2-.7-.2-1.4-.1-2.2,.1-.5,.6-1.2,1.2-2.1,1.7-2,3-3.9,4.3-5.8Z"/>
    <path d="M380.7,435.76c.3,0,.7,.1,1.2,.2-.3,1.4-.2,2.4,.5,3,.2,.2,.6,.5,.9,.6s.7,.1,1,0,.6-.2,.8-.5c.2-.2,.5-.7,.5-1,.1-.6,0-1.5-.2-2.8-.2-1.2-.3-2-.3-2.4,0-.7,.2-1.3,.7-1.7,.3-.3,.7-.7,1.2-.8s.9-.1,1.5,0c.5,.1,.9,.5,1.4,.8,.5,.5,.8,.9,.9,1.5,.2,.6,.2,1.3,.1,2.2-.5-.1-.8-.1-1.3-.2,.1-.7,0-1.3-.1-1.6s-.3-.7-.6-.9c-.3-.3-.8-.5-1.2-.6-.5,0-.8,.1-1,.5-.1,.2-.2,.5-.3,.7-.1,.2-.1,.6-.1,.9,0,.2,.1,.8,.3,1.9,.2,1.3,.2,2.2,.1,2.9s-.5,1.2-.8,1.6c-.6,.6-1.3,.9-2.2,.9-.8,0-1.6-.2-2.2-.8-.5-.5-.8-1-.9-1.6-.2-1.1-.1-1.9,.1-2.8Z"/>
    <path d="M394.1,435.56c1.6,1.9,3.2,3.7,4.8,5.7-.3,.2-.6,.5-.9,.7-1.3-1.6-2.6-3.1-3.8-4.6-.9,.8-1.7,1.6-2.7,2.4,1.3,1.4,2.6,2.9,3.7,4.4-.3,.2-.6,.5-.9,.7-1.2-1.5-2.3-3-3.6-4.4-1.2,1-2.2,2-3.4,3,1.2,1.3,2.3,2.7,3.4,4.2-.3,.2-.6,.5-.9,.7-1.3-1.7-2.7-3.4-4.2-4.9,2.8-2.6,5.7-5.3,8.5-7.9Z"/>
    <path d="M400.3,443.16c.2,.3,.5,.7,.8,1-1.9,1.4-3.8,2.7-5.7,4.1-.7,.5-1,.8-1.3,.9-.3,.3-.6,.7-.7,1s-.1,.8-.1,1.3c.1,.5,.2,.9,.5,1.3,.2,.3,.5,.6,.8,.8s.7,.3,1,.5c.3,0,.8,0,1.2-.1s.8-.3,1.6-.8c2-1.2,3.9-2.4,5.9-3.6,.2,.3,.5,.8,.7,1.2-2,1.2-3.9,2.3-6,3.5-.9,.6-1.6,.8-2.3,1-.7,.1-1.4,.1-2.1-.2-.7-.2-1.3-.8-1.7-1.5-.5-.8-.8-1.6-.8-2.3,0-.8,.2-1.5,.7-2.1,.2-.3,.9-.9,1.9-1.6,1.8-1.7,3.7-3.1,5.6-4.4Z"/>
    <path d="M396.3,458.46c3.6-1.4,7.3-2.6,11-3.8,0,.1,.1,.1,.1,.2-2,3.1-4.1,6.1-6.3,8.9,3.6,.3,7.2,.8,10.8,1.6q0,.1,.1,.2c-3.4,2-6.8,3.8-10.3,5.6-.1-.3-.2-.8-.3-1.2,2.4-1.3,4.9-2.7,7.3-3.9-3.1-.6-6.3-1-9.4-1.3,0-.1-.1-.2-.1-.2,2-2.4,3.8-5,5.6-7.8-2.7,.8-5.3,1.7-7.9,2.7-.2-.3-.4-.6-.6-1Z"/>
  </g>
  <rect class="cls-15" x="251.2" y="479.26" width="19.8" height="18"/>
  <text class="cls-11" transform="translate(251.12 492.04)"><tspan x="0" y="0">*</tspan></text>
  <rect class="cls-15" x="404.8" y="478.36" width="17.5" height="16.1"/>
  <text class="cls-11" transform="translate(404.8 491.11)"><tspan x="0" y="0">*</tspan></text>
</svg>