<?xml version="1.0" encoding="UTF-8"?>
<svg id="Layer_1" data-name="Layer 1" xmlns="http://www.w3.org/2000/svg" viewBox="0 0 252.75 220.85">
  <defs>
    <style>
      .cls-1 {
        fill: #fff;
      }

      .cls-2 {
        fill: #6d9887;
      }
    </style>
  </defs>
  <path class="cls-2" d="M74.23,.19c-.86-.14-2.14-.27-3.66-.12-4.03,.39-8.3,2.58-16.3,12.77-5.06,6.44-10.95,14.06-15.41,26.21-1.65,4.49-2.65,8.37-3.27,11.17-.12,1.14-.17,2.82,.31,4.72,1.19,4.68,4.82,7.75,10.61,11.34,2.4,1.48,5.38,3.19,8.96,4.93,3.67,1.79,7.96,3.62,12.89,5.29,8.56-1.05,15.22-3.18,19.74-4.97,6.3-2.49,8.88-4.47,10.46-7.27,1.64-2.89,1.78-5.87,1.67-7.78,.29-2.26,.56-5.41,.48-9.16-.27-13.7-4.93-23.53-7.8-29.41-4.14-8.49-7.64-15.41-14.66-17.27-1.63-.43-3.06-.49-4.05-.46Z"/>
  <path class="cls-2" d="M52.72,96.55l5.99-25.48,17.97,1.44c.43,5.18,1.6,12.38,4.81,20.4,2.68,6.68,5.96,11.9,8.74,15.66,3.23,6.4,8.27,14.67,16.02,22.94,11.2,11.95,23.11,18.62,30.95,22.21,7.48,2.72,18.51,5.71,32.05,5.83,8.23,.07,15.39-.94,21.12-2.18,8.06-1.75,18.19-4.12,28.04-12.02,3.81-3.05,10.33-9.15,15.28-19.57,3.72-8.44,7.64-19.39,10.21-32.51,3.08-15.69,3.22-29.38,2.55-39.69,3.08,11.53,5.85,26.36,6.19,43.7,.16,8.38,.41,17.56-1.82,29.5-1.55,8.31-3.78,19.68-11.12,32.17-7.84,13.34-18,21.97-25.67,27.19-7.39,4.32-18.07,9.48-31.68,12.75-17.18,4.12-31.9,3.5-41.46,2.34-12.22-1.39-28.46-5.02-45.22-14.35-9.41-5.24-21.39-11.88-30.95-25.86-3.86-5.64-9.07-14.74-12.02-26.95-2.2-9.1-2.46-17.07-2.19-22.94,.73-4.86,1.46-9.71,2.19-14.57Z"/>
  <path class="cls-2" d="M3.84,96.37c.33-.15,4.57-2.18,5.2-6.72,.4-2.86-.86-5.05-1.29-5.73,1.84,2.33,4.78,3.46,7.6,2.92,3.62-.69,5.26-3.8,5.45-4.18l1.16,11.96,14.13,9.98,17.45-4.89-1.65,14.02-18.61-1.9-16.65-11.72-12.8-3.72Z"/>
  <path class="cls-2" d="M139.36,83.57c-.4-.01-5.61-.23-8.12-4.42-1.58-2.64-1.18-5.33-1.02-6.17-.95,3.06-3.51,5.41-6.64,6.06-4.02,.84-6.98-1.53-7.34-1.83l3.71,12.24-10.5,15.74-20.01,2.51,7.45,13.09,18.42-9.68,12.38-18.51,11.68-9.03Z"/>
  <path class="cls-2" d="M122.48,148.39l13.58-22.91,25.13-13.84c-.49-4.01-.97-8.01-1.46-12.02,1.88,2.31,4.82,3.44,7.65,2.91,3.54-.66,5.23-3.59,5.46-4.01-.22,.54-1.31,3.31,0,6.19,1.29,2.83,4.38,4.62,7.8,4.5-4.18,2.51-8.35,5.01-12.53,7.52-8.86,5.34-17.72,10.68-26.58,16.02l-4.73,23.67c-4.77-2.68-9.54-5.36-14.32-8.04Z"/>
  <path class="cls-2" d="M66.87,163.36l-31.24,5.98-14.58,30.73-12.53,6.78c.72,.11,5.17,.87,7.69,4.92,1.46,2.34,1.58,4.67,1.56,5.75,.62-.63,3.07-2.99,7.03-3.32,4.26-.36,7.22,1.87,7.86,2.38-1.14-4.57-2.28-9.14-3.42-13.71,5.12-8.78,10.24-17.56,15.36-26.33,12.67,.51,25.35,1.02,38.02,1.54-5.26-4.91-10.51-9.82-15.77-14.73Z"/>
  <circle class="cls-2" cx="7.51" cy="84.59" r="2.5"/>
  <circle class="cls-2" cx="21.5" cy="82.08" r="2.5"/>
  <circle class="cls-2" cx="2.5" cy="96.02" r="2.5"/>
  <circle class="cls-2" cx="115.99" cy="77.64" r="2.5"/>
  <circle class="cls-2" cx="130.21" cy="73.99" r="2.5"/>
  <circle class="cls-2" cx="139.36" cy="83.91" r="2.5"/>
  <circle class="cls-2" cx="158.8" cy="98.53" r="2.5"/>
  <circle class="cls-2" cx="172.57" cy="99.39" r="2.5"/>
  <circle class="cls-2" cx="181.06" cy="109.38" r="2.5"/>
  <circle class="cls-2" cx="8.53" cy="206.87" r="2.5"/>
  <circle class="cls-2" cx="17.2" cy="218.34" r="2.5"/>
  <circle class="cls-2" cx="33.15" cy="216.6" r="2.5"/>
  <path class="cls-1" d="M68.39,79.58c-1.13,8.83-1.91,18.6-2.04,29.18-.07,6.25,.09,12.2,.42,17.82,7.78,5.29,15.55,10.59,23.33,15.88l9.32,27.95c9.11-1.17,18.22-2.35,27.32-3.52,7.01,7.09,14.02,14.17,21.04,21.26,6.45-5.28,12.9-10.57,19.34-15.85,8.71,4,17.41,8,26.12,12.01,5.36-2.37,12.82-6.39,20.36-13.12,6.78-6.06,11.33-12.26,14.25-16.96-4.11,4.48-9.83,9.87-17.42,14.93-6.46,4.31-12.57,7.25-17.64,9.27-8.61-3.76-17.23-7.52-25.84-11.28-6.16,4.89-12.33,9.78-18.49,14.67-6.54-6.45-13.08-12.91-19.62-19.36-8.77,.8-17.53,1.6-26.3,2.39-2.79-8.44-5.58-16.89-8.37-25.33-7.59-4.82-15.17-9.65-22.76-14.47-.95-5.05-1.77-10.49-2.35-16.29-1.08-10.73-1.14-20.55-.68-29.18Z"/>
</svg>