<?xml version="1.0" encoding="UTF-8"?>
<svg id="Layer_2" data-name="Layer 2" xmlns="http://www.w3.org/2000/svg" xmlns:xlink="http://www.w3.org/1999/xlink" viewBox="0 0 214.73 123.65">
  <defs>
    <style>
      .cls-1 {
        stroke-width: 10px;
      }

      .cls-1, .cls-2 {
        fill: #231f20;
        stroke: #bc2026;
        stroke-miterlimit: 10;
      }

      .cls-2 {
        stroke-width: 18px;
      }

      .cls-3 {
        clip-path: url(#clippath);
      }

      .cls-4 {
        fill: none;
      }

      .cls-5 {
        fill: #262262;
      }
    </style>
    <clipPath id="clippath">
      <rect class="cls-4" x="6.08" y="6.82" width="200.28" height="108.03"/>
    </clipPath>
  </defs>
  <g id="Layer_1-2" data-name="Layer 1">
    <g class="cls-3">
      <line class="cls-2" x1="107.36" y1="6.82" x2="107.36" y2="116.85"/>
      <path class="cls-1" d="M206.92,116.3C138.91,79.02,71.61,41.44,2.4,4.41L206.92,116.31s0,0,0,0Z"/>
      <line class="cls-1" x1="212.33" y1="4.41" x2="2.4" y2="119.27"/>
      <line class="cls-2" x1="6.08" y1="61.84" x2="208.64" y2="61.84"/>
      <polygon class="cls-5" points="6.08 76.22 6.08 101.85 59.22 76.22 6.08 76.22"/>
      <polygon class="cls-5" points="206.36 76.22 206.36 101.85 153.22 76.22 206.36 76.22"/>
      <polygon class="cls-5" points="6.08 47.46 6.08 21.83 59.22 47.46 6.08 47.46"/>
      <polygon class="cls-5" points="92.92 6.82 92.92 37.25 29.84 6.82 92.92 6.82"/>
      <polygon class="cls-5" points="121.68 6.82 121.68 37.25 184.77 6.82 121.68 6.82"/>
      <polygon class="cls-5" points="92.92 115.85 92.92 85.43 29.84 115.85 92.92 115.85"/>
      <polygon class="cls-5" points="121.68 115.85 121.68 85.43 184.77 115.85 121.68 115.85"/>
      <polygon class="cls-5" points="204.87 47.46 204.87 21.83 151.73 47.46 204.87 47.46"/>
    </g>
  </g>
</svg>