<?xml version="1.0" encoding="utf-8"?>
<!-- Generator: Adobe Illustrator 27.0.0, SVG Export Plug-In . SVG Version: 6.00 Build 0)  -->
<svg version="1.1" id="Layer_2_00000093169211007178306620000006361725332497254535_"
	 xmlns="http://www.w3.org/2000/svg" xmlns:xlink="http://www.w3.org/1999/xlink" x="0px" y="0px" viewBox="0 0 162.8 174.5"
	 style="enable-background:new 0 0 162.8 174.5;" xml:space="preserve">
<style type="text/css">
	.st0{fill:#F69D10;stroke:#F69D10;stroke-miterlimit:10;}
	.st1{opacity:0.8;}
	.st2{opacity:0.6;}
</style>
<g id="Layer_1-2">
	<g>
		<g>
			<path class="st0" d="M45.7,8.7C64-0.4,85.9-2,105.3,4.2c13.1,4.2,24.9,11.9,34.2,21.9c-0.4,0.2-0.8,0.4-1.2,0.6l3.5,5.5l-30,8.9
				c0.7-0.9,1.3-1.7,1.9-2.6l-2.7,2.9l-0.8,0.2l0.3,0.3l0,0C93.7,23.8,71,9.4,45.7,8.7z"/>
			<path class="st0" d="M139.6,26.1c7.1-3.2,15.5-3.5,22.8-0.5c0.1,8.1-3.2,16.1-8.8,21.9c-0.7-1.7-1.5-3.3-2.4-5l0.1-0.1
				c-2.1-3.8-4.4-7.5-7.1-10.9C142.7,29.7,141.2,27.9,139.6,26.1L139.6,26.1z"/>
			<path class="st0" d="M138.3,26.7c0.4-0.2,0.8-0.4,1.2-0.6c1.6,1.7,3.1,3.5,4.6,5.4l-2.3,0.7L138.3,26.7L138.3,26.7z"/>
			<path class="st0" d="M141.9,32.2l2.3-0.7c2.6,3.5,5,7.1,7,11l-1.6,1.6L141.9,32.2L141.9,32.2z"/>
			<path class="st0" d="M141.9,32.2l7.7,11.9l-21.1,21.8C124,57,118.2,49,110.9,42.3c0.3-0.4,0.6-0.8,0.9-1.2L141.9,32.2L141.9,32.2
				z"/>
			<path class="st0" d="M111,41.4l2.7-2.9c-0.6,0.9-1.2,1.8-1.9,2.6L111,41.4L111,41.4z"/>
			<path class="st0" d="M144.1,31.5c2.7,3.4,5,7.1,7.1,10.9l-0.1,0.1C149.1,38.7,146.8,35,144.1,31.5z"/>
			<path class="st0" d="M149.6,44.1l1.6-1.6c0.9,1.6,1.6,3.3,2.4,5c-0.4,0.4-0.7,0.7-1.1,1.1L149.6,44.1z"/>
			<path class="st0" d="M111,41.4l0.9-0.2c-0.3,0.4-0.6,0.8-0.9,1.2c-0.1-0.1-0.3-0.3-0.4-0.4L111,41.4L111,41.4z"/>
			<path class="st0" d="M111,41.4l-0.5,0.5l-0.3-0.3L111,41.4L111,41.4z"/>
			<path class="st0" d="M110.4,41.9L110.4,41.9c0.2,0.1,0.3,0.2,0.5,0.4c0,0,0,0-0.1,0.1C110.7,42.2,110.6,42.1,110.4,41.9z"/>
			<path class="st0" d="M96.9,56.2l13.5-14.2c0.1,0.2,0.3,0.3,0.4,0.5C107,47.4,102.3,52.1,96.9,56.2L96.9,56.2z"/>
			<path class="st0" d="M149.6,44.1l2.9,4.4c0.4-0.3,0.8-0.7,1.1-1.1c5.7,13,8.1,27.5,6.4,41.7c-2.4,20.3-12.9,39.5-28.7,52.4
				c10.1-23.7,8.7-52.4-2.8-75.6L149.6,44.1L149.6,44.1z"/>
			<path class="st0" d="M110.9,42.4C110.9,42.4,110.9,42.3,110.9,42.4C118.2,49,124,57,128.4,65.9l-0.1,0.1
				C123.6,58,117.7,49.9,110.9,42.4L110.9,42.4z"/>
			<path class="st0" d="M96.9,56.2c5.4-4.1,10-8.8,13.9-13.8c6.9,7.5,12.8,15.6,17.4,23.7l-1.8,0.3l-45,6.2L96.9,56.2L96.9,56.2z"/>
			<path class="st0" d="M96.9,56.2L81.4,72.5c-5.3-1.1-10.5-2.1-15.8-3.2C77.8,67.6,88.3,62.7,96.9,56.2z"/>
			<path class="st0" d="M81.4,72.5l45-6.2C107.5,69,89.9,73.5,76.7,87C78.2,82.2,79.8,77.4,81.4,72.5L81.4,72.5z"/>
		</g>
		<g>
			<path class="st0" d="M128.3,66.1c-4.7-8-10.5-16.2-17.4-23.7c-0.1-0.2-0.3-0.3-0.4-0.5C93.7,23.8,71,9.4,45.7,8.7
				C64-0.4,85.9-2,105.3,4.2c13.1,4.2,24.9,11.9,34.2,21.9c1.6,1.7,3.1,3.5,4.6,5.4c2.7,3.4,5,7.1,7.1,10.9l-0.1,0.1l-1.6,1.6
				l-21.1,21.8L128.3,66.1L128.3,66.1z"/>
			<path class="st0" d="M111,41.4l-0.8,0.2l0.3,0.3c0.2,0.1,0.3,0.3,0.4,0.4c7.3,6.7,13.1,14.7,17.5,23.6
				c11.5,23.2,12.8,51.9,2.8,75.6c15.8-12.9,26.3-32.1,28.7-52.4c1.7-14.1-0.6-28.7-6.4-41.7c-0.7-1.7-1.5-3.3-2.4-5
				c-2-3.8-4.4-7.5-7-11l-2.3,0.7l-30,8.9L111,41.4L111,41.4z"/>
			<path class="st0" d="M149.6,44.1l2.9,4.4c0.4-0.3,0.8-0.7,1.1-1.1c5.6-5.8,8.9-13.8,8.8-21.9c-7.2-2.9-15.7-2.7-22.8,0.5
				c-0.4,0.2-0.8,0.4-1.2,0.6l3.5,5.5L149.6,44.1z"/>
			<path class="st0" d="M126.4,66.3C107.5,69,89.9,73.5,76.7,87c1.6-4.8,3.2-9.7,4.8-14.5L126.4,66.3l1.8-0.3"/>
			<path class="st0" d="M111,41.4l2.7-2.9c-0.6,0.9-1.2,1.8-1.9,2.6c-0.3,0.4-0.6,0.8-0.9,1.2c0,0,0,0-0.1,0.1
				c-3.9,5-8.5,9.7-13.9,13.8c-8.6,6.5-19.1,11.5-31.3,13.2c5.3,1.1,10.5,2.1,15.8,3.2L97,56.2l13.5-14.2l0,0L111,41.4L111,41.4z"/>
		</g>
	</g>
	<g class="st1">
		<g>
			<g>
				<path class="st0" d="M45.3,117.6c7.8-6.2,18-9.2,27.8-8.2c6.6,0.6,13.1,3.1,18.5,6.9c-0.2,0.1-0.3,0.3-0.5,0.4l2.2,2.2L80,126.2
					c0.2-0.5,0.4-0.9,0.6-1.4l-1,1.6l-0.4,0.2l0.2,0.1v0C69.6,119.9,57.4,115.3,45.3,117.6z"/>
				<path class="st0" d="M91.7,116.3c3-2.3,7-3.2,10.8-2.6c0.8,3.8,0.1,8-1.9,11.3c-0.5-0.7-1.1-1.4-1.6-2.1l0-0.1
					c-1.4-1.6-2.9-3.1-4.5-4.4C93.5,117.6,92.6,116.9,91.7,116.3L91.7,116.3z"/>
				<path class="st0" d="M91.1,116.7c0.2-0.1,0.3-0.3,0.5-0.4c0.9,0.7,1.8,1.4,2.7,2.1l-1,0.6L91.1,116.7z"/>
				<path class="st0" d="M93.4,118.9l1-0.6c1.6,1.4,3.1,2.9,4.4,4.5l-0.6,0.9C98.2,123.8,93.4,118.9,93.4,118.9z"/>
				<path class="st0" d="M93.4,118.9l4.9,4.9l-7.8,12.5c-3-3.8-6.6-7-10.7-9.4c0.1-0.2,0.2-0.4,0.3-0.7L93.4,118.9L93.4,118.9z"/>
				<path class="st0" d="M79.7,126.4l1-1.6c-0.2,0.5-0.4,0.9-0.6,1.4L79.7,126.4z"/>
				<path class="st0" d="M94.4,118.4c1.6,1.4,3.1,2.8,4.5,4.4l0,0.1C97.5,121.2,96,119.7,94.4,118.4L94.4,118.4z"/>
				<path class="st0" d="M98.2,123.8l0.6-0.9c0.6,0.7,1.1,1.4,1.6,2.1c-0.1,0.2-0.3,0.4-0.4,0.6L98.2,123.8L98.2,123.8z"/>
				<path class="st0" d="M79.7,126.4l0.4-0.2c-0.1,0.2-0.2,0.4-0.3,0.7c-0.1-0.1-0.2-0.1-0.2-0.2L79.7,126.4z"/>
				<path class="st0" d="M79.7,126.4l-0.2,0.3l-0.2-0.1C79.3,126.6,79.7,126.4,79.7,126.4z"/>
				<path class="st0" d="M79.5,126.8L79.5,126.8c0.1,0,0.2,0.1,0.3,0.1c0,0,0,0,0,0C79.6,126.9,79.5,126.8,79.5,126.8z"/>
				<path class="st0" d="M74.5,134.9l4.9-8.1c0.1,0.1,0.2,0.1,0.2,0.2C78.4,129.7,76.7,132.4,74.5,134.9z"/>
				<path class="st0" d="M98.2,123.8l1.8,1.8c0.1-0.2,0.3-0.4,0.4-0.6c4.1,5.6,6.7,12.2,7.3,19.1c0.9,9.9-2.1,20.1-8.3,27.8
					c2.3-12.3-1.3-25.8-9.1-35.6C90.4,136.3,98.2,123.8,98.2,123.8z"/>
				<path class="st0" d="M79.7,126.9C79.7,126.9,79.7,126.9,79.7,126.9c4.1,2.4,7.8,5.6,10.7,9.4l-0.1,0.1
					C87.4,133,83.7,129.8,79.7,126.9L79.7,126.9z"/>
				<path class="st0" d="M74.5,134.9c2.1-2.5,3.9-5.2,5.2-8c4,2.9,7.7,6.1,10.7,9.4l-0.8,0.3l-20.7,7.6L74.5,134.9L74.5,134.9z"/>
				<path class="st0" d="M74.5,134.9l-5.7,9.4c-2.6,0-5.2,0.1-7.8,0.1C66.6,142.3,71.1,138.9,74.5,134.9L74.5,134.9z"/>
				<path class="st0" d="M68.8,144.2l20.7-7.6c-8.7,3.2-16.6,7.1-21.5,14.9C68.3,149.2,68.6,146.7,68.8,144.2L68.8,144.2z"/>
			</g>
			<g>
				<path class="st0" d="M90.4,136.4c-3-3.3-6.7-6.6-10.7-9.4c-0.1-0.1-0.2-0.1-0.2-0.2c-9.8-6.9-22-11.4-34.1-9.1
					c7.8-6.2,18-9.2,27.8-8.2c6.6,0.6,13.1,3.1,18.5,6.9c0.9,0.7,1.8,1.4,2.7,2.1c1.6,1.4,3.1,2.8,4.5,4.4l0,0.1l-0.6,0.9
					L90.4,136.4L90.4,136.4L90.4,136.4z"/>
				<path class="st0" d="M79.7,126.4l-0.4,0.2l0.2,0.1c0.1,0.1,0.2,0.1,0.2,0.2c4.1,2.4,7.7,5.6,10.7,9.4
					c7.8,9.8,11.4,23.3,9.1,35.6c6.2-7.8,9.2-17.9,8.3-27.8c-0.7-6.9-3.2-13.5-7.3-19.1c-0.5-0.7-1.1-1.4-1.6-2.1
					c-1.3-1.6-2.8-3.1-4.4-4.5l-1,0.6l-13.3,7.3L79.7,126.4L79.7,126.4z"/>
				<path class="st0" d="M98.2,123.8l1.8,1.8c0.1-0.2,0.3-0.4,0.4-0.6c2.1-3.3,2.8-7.5,1.9-11.3c-3.7-0.7-7.7,0.3-10.8,2.6
					c-0.2,0.1-0.3,0.3-0.5,0.4l2.2,2.2L98.2,123.8L98.2,123.8z"/>
				<path class="st0" d="M89.6,136.7c-8.7,3.2-16.6,7.1-21.5,14.9c0.3-2.4,0.5-4.9,0.8-7.4L89.6,136.7l0.8-0.3"/>
				<path class="st0" d="M79.7,126.4l1-1.6c-0.2,0.5-0.4,0.9-0.6,1.4c-0.1,0.2-0.2,0.4-0.3,0.7c0,0,0,0,0,0c-1.3,2.8-3.1,5.5-5.2,8
					c-3.4,4-7.9,7.4-13.5,9.5c2.6,0,5.2-0.1,7.8-0.1l5.7-9.4l4.9-8.1v0L79.7,126.4L79.7,126.4z"/>
			</g>
		</g>
	</g>
	<g class="st2">
		<g>
			<g>
				<path class="st0" d="M2,131.4c5.7-2.7,12.5-3.1,18.5-1.1c4,1.4,7.7,3.8,10.5,6.9c-0.1,0.1-0.3,0.1-0.4,0.2l1.1,1.7l-9.3,2.6
					c0.2-0.3,0.4-0.5,0.6-0.8l-0.9,0.9l-0.2,0.1l0.1,0.1l0,0C16.8,136.3,9.9,131.7,2,131.4L2,131.4z"/>
				<path class="st0" d="M31,137.2c2.2-1,4.8-1,7-0.1c0,2.5-1.1,5-2.8,6.7c-0.2-0.5-0.5-1-0.7-1.5l0,0c-0.6-1.2-1.3-2.3-2.2-3.4
					C31.9,138.3,31.5,137.7,31,137.2z"/>
				<path class="st0" d="M30.6,137.4c0.1-0.1,0.2-0.1,0.4-0.2c0.5,0.5,1,1.1,1.4,1.7l-0.7,0.2L30.6,137.4z"/>
				<path class="st0" d="M31.7,139.1l0.7-0.2c0.8,1.1,1.5,2.2,2.1,3.4l-0.5,0.5C34,142.8,31.7,139.1,31.7,139.1z"/>
				<path class="st0" d="M31.7,139.1l2.3,3.7l-6.6,6.6c-1.3-2.8-3.1-5.3-5.3-7.4c0.1-0.1,0.2-0.2,0.3-0.4L31.7,139.1L31.7,139.1z"/>
				<path class="st0" d="M22.1,141.8l0.9-0.9c-0.2,0.3-0.4,0.5-0.6,0.8L22.1,141.8L22.1,141.8z"/>
				<path class="st0" d="M32.4,138.9c0.8,1.1,1.5,2.2,2.2,3.4l0,0C33.9,141.1,33.2,140,32.4,138.9z"/>
				<path class="st0" d="M34,142.8l0.5-0.5c0.3,0.5,0.5,1,0.7,1.5c-0.1,0.1-0.2,0.2-0.3,0.3L34,142.8L34,142.8z"/>
				<path class="st0" d="M22.1,141.8l0.3-0.1c-0.1,0.1-0.2,0.2-0.3,0.4c0,0-0.1-0.1-0.1-0.1L22.1,141.8L22.1,141.8z"/>
				<path class="st0" d="M22.1,141.8l-0.2,0.2l-0.1-0.1L22.1,141.8L22.1,141.8z"/>
				<path class="st0" d="M21.9,142L21.9,142c0,0,0.1,0.1,0.1,0.1c0,0,0,0,0,0C22,142.1,21.9,142,21.9,142L21.9,142z"/>
				<path class="st0" d="M17.7,146.3l4.2-4.4c0,0,0.1,0.1,0.1,0.1C20.8,143.6,19.4,145.1,17.7,146.3L17.7,146.3z"/>
				<path class="st0" d="M34,142.8l0.9,1.4c0.1-0.1,0.2-0.2,0.3-0.3c1.7,4.1,2.4,8.6,1.8,12.9c-0.8,6.3-4.2,12.2-9.1,16.1
					c3.2-7.3,2.9-16.2-0.5-23.4C27.4,149.4,34,142.8,34,142.8z"/>
				<path class="st0" d="M22,142.1C22,142.1,22.1,142.1,22,142.1c2.2,2.1,4,4.6,5.3,7.4l0,0C25.9,147,24.1,144.5,22,142.1z"/>
				<path class="st0" d="M17.7,146.3c1.7-1.2,3.1-2.7,4.4-4.2c2.1,2.4,3.9,4.9,5.3,7.4l-0.6,0.1l-14,1.7L17.7,146.3L17.7,146.3z"/>
				<path class="st0" d="M17.7,146.3l-4.9,5c-1.6-0.4-3.2-0.7-4.9-1.1C11.7,149.8,15,148.3,17.7,146.3z"/>
				<path class="st0" d="M12.8,151.3l14-1.7c-5.9,0.8-11.3,2.1-15.5,6.2C11.8,154.3,12.3,152.8,12.8,151.3z"/>
			</g>
			<g>
				<path class="st0" d="M27.3,149.5c-1.4-2.5-3.2-5-5.3-7.4c0-0.1-0.1-0.1-0.1-0.1c-5.1-5.7-12.1-10.3-19.9-10.6
					c5.7-2.7,12.5-3.1,18.5-1.1c4,1.4,7.7,3.8,10.5,6.9c0.5,0.5,1,1.1,1.4,1.7c0.8,1.1,1.5,2.2,2.2,3.4l0,0l-0.5,0.5L27.3,149.5
					L27.3,149.5L27.3,149.5z"/>
				<path class="st0" d="M22.1,141.8l-0.2,0.1l0.1,0.1c0,0,0.1,0.1,0.1,0.1c2.2,2.1,4,4.6,5.3,7.4c3.5,7.2,3.8,16.1,0.5,23.4
					c4.9-3.9,8.3-9.8,9.1-16.1c0.6-4.4-0.1-8.9-1.8-12.9c-0.2-0.5-0.5-1-0.7-1.5c-0.6-1.2-1.3-2.4-2.1-3.4l-0.7,0.2l-9.3,2.6
					L22.1,141.8L22.1,141.8z"/>
				<path class="st0" d="M34,142.8l0.9,1.4c0.1-0.1,0.2-0.2,0.3-0.3c1.8-1.8,2.8-4.2,2.8-6.7c-2.2-0.9-4.8-0.9-7,0.1
					c-0.1,0.1-0.3,0.1-0.4,0.2l1.1,1.7L34,142.8L34,142.8z"/>
				<path class="st0" d="M26.8,149.6c-5.9,0.8-11.3,2.1-15.5,6.2c0.5-1.5,1-3,1.5-4.5L26.8,149.6l0.6-0.1"/>
				<path class="st0" d="M22.1,141.8l0.9-0.9c-0.2,0.3-0.4,0.5-0.6,0.8c-0.1,0.1-0.2,0.2-0.3,0.4c0,0,0,0,0,0
					c-1.2,1.5-2.7,3-4.4,4.2c-2.7,2-6,3.5-9.8,3.9c1.6,0.4,3.2,0.7,4.9,1.1l4.9-5l4.2-4.4l0,0L22.1,141.8L22.1,141.8z"/>
			</g>
		</g>
	</g>
</g>
</svg>
