<?xml version="1.0" encoding="UTF-8"?>
<svg id="Layer_2" data-name="Layer 2" xmlns="http://www.w3.org/2000/svg" viewBox="0 0 197.25 116.85">
  <defs>
    <style>
      .cls-1 {
        fill: none;
        stroke: #231f20;
        stroke-miterlimit: 10;
        stroke-width: 6px;
      }
    </style>
  </defs>
  <g id="Layer_2-2" data-name="Layer 2">
    <g id="pusle">
      <path class="cls-1" d="M79.76,22.16c-.8-.35-4.04-1.86-5.41-5.41-1.19-3.08-.43-6.31,.68-8.11,3.99-6.49,21.3-8.71,28,.63,5.17,7.2,2.9,25.26-7.23,32.09-.09,3.57-.19,7.15-.28,10.73-29.44,16.24-58.88,32.48-88.31,48.72-2.63,1.21-4.29,3.87-4.21,6.73,.08,2.71,1.71,5.16,4.21,6.31H188.88c4.25-1.63,6.17-5.83,5.05-8.83-1.11-2.95-4.77-3.73-5.05-3.78-31.12-16.38-62.24-32.76-93.36-49.14"/>
    </g>
  </g>
</svg>