<?xml version="1.0" encoding="UTF-8"?>
<svg id="Layer_2" data-name="Layer 2" xmlns="http://www.w3.org/2000/svg" viewBox="0 0 148.6 102.79">
  <defs>
    <style>
      .cls-1 {
        fill: #f69d10;
        stroke: #f69d10;
        stroke-miterlimit: 10;
      }

      .cls-2 {
        fill: none;
      }

      .cls-3 {
        font-family: CenturyGothic, 'Century Gothic';
        font-size: 15px;
        isolation: isolate;
      }
    </style>
  </defs>
  <g id="Layer_1-2" data-name="Layer 1">
    <path class="cls-1" d="M67.1,38.6c2,0,5,.1,8.6,1.3,3.5,1.2,6,2.9,7.5,4.2,.6-1.9,1.4-5.1,.8-8.9-.2-1.7-.6-4.3-2.5-6.8-.4-.5-.8-.9-1-1.2-.4,.1-.9,.2-1.5,.3-3.7,1-6.1,3.2-7.1,4-2.9,2.6-4.2,5.5-4.8,7.1Z"/>
    <path class="cls-1" d="M76,42c-1.3,3.7-2.6,7.4-3.9,11.1,1,.7,2.2,1.9,3.4,3.4,1.2,1.6,1.9,3.1,2.3,4.2,3.5-.3,7.1-.6,10.6-.9,.1-1.7,0-5.6-2.3-9.7-3.4-5.7-8.7-7.6-10.1-8.1Z"/>
    <path class="cls-1" d="M74.4,41.5c-1.1,2.9-2.2,5.8-3.2,8.8-.3,.7-.5,1.5-.8,2.2-1-.1-2.6-.2-4.4,.2-1.8,.4-3.2,1.1-4.1,1.7-2.7-2.3-5.4-4.7-8.1-7,1-1.3,3.5-4.4,7.9-6.1,6.1-2.3,11.3-.3,12.7,.2Z"/>
    <path class="cls-1" d="M70.5,54.6c-.8-.1-1.9-.2-3.2,0-2.2,.3-3.8,1.2-4.8,1.8-1.6,4-3.3,8-4.9,12,.2,1.1,.7,2.8,1.9,4.6,1.1,1.6,2.3,2.6,3.1,3.2,1,.1,2.8,.1,4.8-.6,1.6-.6,2.8-1.4,3.5-2,1.6-4,3.1-8,4.7-12-.2-.9-.7-2.1-1.5-3.4-1.2-2-2.7-3-3.6-3.6Z"/>
    <path class="cls-1" d="M52.6,49.2c2.6,2.1,5.3,4.2,7.9,6.4-1.5,3.8-3.1,7.6-4.6,11.3-3.4-.1-6.8-.1-10.2-.2,.6-2.9,1.6-6.4,3.2-10.2,1.2-2.7,2.5-5.2,3.7-7.3Z"/>
    <path class="cls-1" d="M58.9,88.5c.6-1.8,1.2-3.6,1.9-5.4,.6-1.7,1.2-3.3,1.9-4.9,1.9,0,3.3-.3,4.3-.6,.8-.2,1.4-.4,1.8-.6,1.5-.6,2.7-1.4,3.4-2,2.7,2.1,5.3,4.2,8,6.3-.7,1.3-3.1,5.3-8.2,7.4-6.3,2.8-12.1,.3-13.1-.2Z"/>
    <path class="cls-1" d="M45.2,68.9h6.2c1.5,0,2.9-.1,4.4-.1,.4,1.4,1.1,3.3,2.4,5.3,1.1,1.7,2.3,2.9,3.2,3.8-1.3,3.4-2.7,6.7-4,10.1-1.6-.6-5.8-2.5-8.9-7.1-3.5-5.1-3.4-10.4-3.3-12Z"/>
    <path class="cls-1" d="M81.1,80c-2.7-2-5.4-4.1-8.1-6.1,1.4-3.8,2.9-7.6,4.3-11.5,3.5-.2,7.1-.4,10.6-.7-.7,3.2-1.7,6.9-3.3,10.8-1.1,2.8-2.3,5.3-3.5,7.5Z"/>
    <path class="cls-1" d="M52.5,45.9c1-1.2,2.4-2.8,4.5-4.2,1.4-.9,2.6-1.5,3.7-2-.6-.7-1.7-1.7-3.5-2.4-.3-.1-2.4-1-4.8-.5-.7,.1-1.6,.4-2.7,.8-1.6,.6-1.6,.9-3,1.6-2.2,1-4.3,1.3-6.7,1.6-.6,.1-1.1,.1-1.4,.2-.3,.3-.5,.7-.5,1,.1,1.6,4.9,2.9,14.4,3.9Z"/>
    <path class="cls-1" d="M36.2,86.9c-.2-.9-.5-3.9,1.2-7,2.2-3.8,5.9-4.8,6.6-5,.3,1.5,.9,3.6,2.1,5.8,1.1,1.9,2.2,3.2,3.2,4.2-3.4-1.5-5.5-1.2-6.9-.6-2.5,1.1-4,3.9-5.4,3.4-.4-.1-.7-.6-.8-.8Z"/>
    <path class="cls-1" d="M76,102.1c.7-.6,2.9-2.6,3.6-6.1,.8-4.3-1.4-7.5-1.9-8.1-1.2,.9-3,2.1-5.4,3-2,.7-3.8,1-5.1,1.2,3.6,1,5,2.6,5.7,3.9,1.2,2.4,.5,5.5,1.9,6.1,.4,.3,.9,.2,1.2,0Z"/>
    <path class="cls-1" d="M90,59.5c0-1.4-.1-3.5-.8-5.8-.5-1.8-1.3-3.3-1.9-4.3,.9-.1,2.4-.2,4.2,.4,.3,.1,2.4,.8,4,2.7,.4,.5,1,1.3,1.6,2.4,.8,1.5,.7,1.8,1.3,3.1,1,2.1,2.5,3.7,4.1,5.5,.4,.4,.8,.8,1,1.1,0,.5,0,.8-.3,1-1.1,1.1-5.5-.9-13.2-6.1Z"/>
    <path class="cls-1" d="M55.1,88.7c.7,.4,1.5,.7,2.3,1.1,1,.4,1.9,.8,2.8,1.1-2,1.2-2.6,1.7-2.8,2l-.4,.6c-.1,.1-.2,.2-.3,.4-.5,.7-1,1.2-1.3,1.5v-1.8c0-.8,.1-1.3,.2-1.7,.2-.7,.1-1.8-.5-3.2Z"/>
    <g>
      <path d="M9.3,53.9c-3.1-1-6.2-2-9.3-3,0-.1,.1-.2,.1-.3,3.2-1.9,6.5-3.4,9.8-4.6-2.3-1-4.5-2.1-6.8-3.1,.2-.4,.3-.7,.5-1.1,2.9,1.4,5.9,2.8,8.8,4.2,0,.1-.1,.1-.1,.2-3.2,1-6.4,2.4-9.6,4.2,2.3,.8,4.6,1.6,7,2.4-.2,.4-.3,.8-.4,1.1Z"/>
      <path d="M7.2,35c3.7,.2,7.3,.6,10.9,1.2-.2,.3-.4,.6-.6,.9-1.2-.2-2.4-.3-3.6-.5-.8,1.3-1.6,2.6-2.3,3.9,.7,1,1.3,2,2,3-.2,.3-.4,.7-.5,1-2.2-2.9-4.2-6.1-6-9.4,0,.1,.1,0,.1-.1Zm1.7,1.2c.7,1.2,1.4,2.3,2.1,3.5,.6-1.1,1.2-2.1,1.9-3.2-1.3-.1-2.7-.2-4-.3Z"/>
      <path d="M11.3,30.5c-.3-.2-.5-.4-.8-.6,1.2-1.7,2.5-3.3,3.8-4.9,.2,.2,.5,.4,.7,.6-.5,.6-1.1,1.3-1.6,1.9,2.3,1.9,4.6,3.7,6.9,5.6-.2,.3-.4,.5-.6,.8-2.3-1.8-4.6-3.7-6.9-5.5-.5,.8-1,1.5-1.5,2.1Z"/>
      <path d="M15.4,23.9c.2-.3,.5-.5,.7-.8,1.4,1.4,2.9,2.7,4.3,4.1,.5,.5,.8,.8,1,.9,.3,.2,.6,.4,.9,.4s.7,0,1-.1c.4-.1,.7-.3,1-.6,.2-.2,.4-.5,.5-.8s.2-.6,.1-.9c0-.3-.1-.6-.3-1-.1-.2-.4-.6-1-1.2-1.3-1.5-2.7-2.9-4-4.4,.3-.2,.5-.5,.8-.7,1.3,1.5,2.6,2.9,4,4.4,.6,.7,1,1.2,1.2,1.8,.2,.5,.3,1.1,.2,1.7-.1,.6-.4,1.2-.9,1.7s-1.1,.9-1.8,1c-.7,.1-1.3,.1-1.9-.2-.4-.2-.9-.6-1.6-1.3-1.3-1.4-2.7-2.7-4.2-4Z"/>
      <path d="M22.6,16.9c.6-.5,1.1-.9,1.7-1.4,.9-.7,1.6-1.2,2-1.4,.6-.3,1.2-.3,1.8-.2,.6,.1,1,.5,1.4,1,.3,.4,.5,.9,.5,1.4s-.1,.9-.4,1.4c-.3,.4-.7,.9-1.4,1.4,1.9,.5,3.7,1,5.5,1.7-.3,.2-.6,.4-.9,.7-1.8-.6-3.6-1.1-5.5-1.6-.1,.1-.3,.2-.4,.4,1,1.2,1.9,2.4,2.9,3.6-.2,.2-.5,.4-.7,.6-2.3-2.6-4.4-5.1-6.5-7.6Zm1.4,.1c.7,.9,1.4,1.7,2.1,2.6,.5-.4,.9-.7,1.4-1.1,.5-.4,.9-.8,1.1-1.1s.3-.6,.3-.9-.1-.6-.3-.9c-.2-.3-.4-.5-.8-.6-.3-.1-.6-.1-1,0-.3,.1-.8,.4-1.4,.8-.4,.4-.9,.8-1.4,1.2Z"/>
      <path d="M29.9,11.6c.3-.2,.6-.4,.9-.6,.7,1.2,1.5,2.3,2.2,3.5,1.5-.9,2.9-1.7,4.5-2.5-.6-1.2-1.3-2.4-1.9-3.7,.3-.2,.6-.3,.9-.5,1.5,2.9,3,5.8,4.5,8.8-.3,.1-.5,.3-.8,.4-.7-1.4-1.5-2.8-2.2-4.2-1.5,.8-3,1.6-4.4,2.5,.8,1.3,1.7,2.7,2.5,4-.3,.2-.5,.3-.8,.5-1.9-2.7-3.6-5.5-5.4-8.2Z"/>
      <path d="M38.6,6.8c.3-.1,.6-.3,1-.4,1.3,3,2.7,6,4,9-.3,.1-.6,.2-.8,.4-1.4-3.1-2.8-6.1-4.2-9Z"/>
      <path d="M44,13.2c.2-.3,.4-.5,.5-.8,.9,.8,1.7,1.1,2.4,.8,.3-.1,.5-.3,.7-.5s.3-.5,.4-.8c.1-.3,0-.6-.1-.8-.1-.3-.3-.6-.6-.8-.4-.3-1.1-.6-2.1-.9-1-.3-1.6-.5-1.9-.7-.5-.3-.9-.7-1.1-1.2-.2-.4-.2-.8-.1-1.2,.1-.4,.2-.8,.5-1.1s.7-.6,1.1-.7c.5-.2,.9-.2,1.4-.1,.5,.1,1.1,.3,1.7,.8-.2,.3-.4,.6-.6,.8-.5-.3-1-.5-1.3-.6s-.6,0-.9,.1c-.4,.1-.7,.4-.8,.7-.2,.3-.2,.6,0,1,.1,.2,.2,.4,.4,.5,.2,.2,.4,.3,.7,.4,.2,.1,.7,.2,1.6,.5,1,.3,1.8,.6,2.2,1,.5,.4,.8,.8,.9,1.3,.2,.7,.2,1.3-.1,2s-.8,1.1-1.5,1.4c-.5,.2-1,.2-1.6,.1-.6-.4-1.2-.7-1.8-1.2Z"/>
      <path d="M48,4.2c-.1-.3-.2-.6-.3-.9,1.8-.6,3.7-1.1,5.6-1.5,.1,.3,.1,.6,.2,.9-.8,.2-1.5,.4-2.3,.5,.8,2.9,1.5,5.7,2.3,8.6-.3,.1-.6,.2-.9,.2-.8-2.8-1.6-5.7-2.4-8.5-.7,.3-1.4,.5-2.2,.7Z"/>
      <path d="M59.7,.4c1.6-.2,3,.1,4.1,1s1.7,2.1,1.8,3.5-.3,2.7-1.2,3.8-1.9,1.7-3.2,1.9-2.5-.1-3.7-.9c-1.1-.8-1.9-1.9-2.2-3.3-.2-.9-.2-1.8,.1-2.7s.8-1.6,1.6-2.2c.9-.6,1.7-1,2.7-1.1Zm.2,.9c-.8,.1-1.5,.4-2.1,.9s-1,1.1-1.3,1.8c-.2,.7-.3,1.4-.1,2.2,.2,1.1,.8,2,1.7,2.7s1.9,.9,2.9,.8c.7-.1,1.3-.4,1.9-.8,.6-.4,1-1,1.3-1.6,.3-.7,.4-1.4,.4-2.2-.1-.8-.3-1.5-.7-2.1s-1-1.1-1.7-1.4c-.8-.3-1.5-.4-2.3-.3Z"/>
      <path d="M67.5,0h2.1c1.2,0,2,.1,2.4,.2,.6,.1,1.1,.5,1.5,.9,.4,.5,.5,1,.5,1.6,0,.5-.2,1-.5,1.4s-.6,.7-1.1,.9-1.1,.3-1.9,.3c1.2,1.5,2.2,3.1,3.2,4.7-.4,0-.8,0-1.1-.1-1-1.6-2.1-3.1-3.3-4.6h-.6c0,1.5,.1,3,.1,4.6h-.9c-.2-3.4-.3-6.6-.4-9.9Zm1.1,.9c0,1.1,0,2.2,.1,3.3h1.7c.7,0,1.2-.1,1.5-.2,.3-.1,.6-.3,.8-.6s.3-.6,.3-.9-.1-.6-.2-.9c-.2-.3-.4-.5-.7-.6s-.8-.2-1.5-.2c-.8,.1-1.4,.1-2,.1Z"/>
      <path d="M76.2,.2c.3,0,.7,.1,1,.1-.3,3.3-.7,6.5-1,9.8-.3,0-.6-.1-.9-.1,.3-3.3,.6-6.6,.9-9.8Z"/>
      <path d="M77.6,8.4c.3-.1,.6-.3,.9-.4,.4,1.1,1,1.8,1.7,1.9,.3,0,.6,0,.9-.1,.3-.1,.5-.3,.7-.5s.3-.5,.4-.8c.1-.3,0-.7-.1-1-.2-.5-.7-1.1-1.4-1.8s-1.2-1.2-1.3-1.5c-.3-.5-.4-1-.3-1.6,.1-.4,.2-.8,.5-1.1s.6-.6,1-.7c.4-.1,.9-.2,1.3-.1,.5,.1,.9,.3,1.3,.6,.4,.3,.8,.8,1.1,1.5-.3,.1-.6,.3-.9,.4-.3-.6-.6-.9-.8-1.1-.2-.2-.5-.3-.9-.4-.4-.1-.8,0-1.1,.2s-.5,.5-.5,.8v.6c.1,.2,.2,.4,.4,.7,.1,.1,.5,.5,1.1,1.2,.7,.8,1.2,1.4,1.4,2,.2,.5,.3,1.1,.2,1.5-.1,.7-.5,1.3-1.1,1.7s-1.2,.6-1.9,.5c-.5-.1-1-.3-1.4-.7-.6-.5-.9-1.1-1.2-1.8Z"/>
      <path d="M86.8,1.8c.3,.1,.7,.2,1,.2-.3,1.2-.6,2.4-.9,3.6,1.6-.9,3.3-1.7,5-2.5,.5,.1,.9,.3,1.4,.4-2.1,.9-4.1,1.9-6,2.9,1.2,2.2,2.3,4.4,3.2,6.6-.4-.1-.8-.2-1.2-.4-.8-1.9-1.7-3.7-2.7-5.5-.4,1.5-.7,3-1.1,4.5-.3-.1-.6-.1-.9-.2,.7-3.2,1.5-6.4,2.2-9.6Z"/>
      <path d="M94.7,14.5c1.7-2.9,3.4-5.7,5.2-8.5q.1,0,.2,.1c.2,3,.3,6.1,.2,9,2.4-1.8,4.9-3.6,7.5-5.2l.1,.1c-1.3,3.1-2.6,6.2-3.9,9.2-.3-.2-.5-.3-.8-.5,1-2.2,1.9-4.4,2.8-6.6-2.2,1.4-4.4,3-6.5,4.6-.1,0-.1-.1-.2-.1,.1-2.6,.1-5.2,0-7.9-1.3,2-2.5,4.1-3.8,6.1-.3-.1-.5-.2-.8-.3Z"/>
      <path d="M111,11.9c.3,.2,.6,.4,.9,.6-1.1,1.6-2.3,3.3-3.4,4.9-.4,.6-.6,1-.7,1.1-.2,.3-.3,.7-.3,1s.1,.6,.3,1c.2,.3,.4,.6,.7,.8,.3,.2,.5,.3,.8,.4s.6,.1,.9,0c.3-.1,.6-.2,.9-.4,.2-.2,.6-.5,1-1.2,1.2-1.6,2.5-3.1,3.7-4.7,.3,.2,.6,.4,.8,.7-1.3,1.6-2.5,3.1-3.8,4.7-.6,.7-1.1,1.2-1.6,1.5s-1,.5-1.7,.5c-.6,0-1.2-.2-1.8-.6s-1-1-1.2-1.6-.2-1.2-.1-1.9c.1-.4,.5-1,1-1.8,1.4-1.7,2.5-3.3,3.6-5Z"/>
      <path d="M112.7,23.3c.3,0,.6,.1,1,.2-.3,1.2-.2,2.1,.4,2.6,.2,.2,.5,.4,.8,.5s.6,.1,.9,0c.3-.1,.5-.2,.7-.4,.2-.2,.4-.6,.4-.9,.1-.5,0-1.3-.2-2.4-.2-1-.3-1.7-.3-2.1,0-.6,.2-1.1,.6-1.5,.3-.3,.6-.6,1-.7,.4-.1,.8-.1,1.3,0,.4,.1,.8,.4,1.2,.7,.4,.4,.7,.8,.8,1.3,.2,.5,.2,1.1,.1,1.9-.4-.1-.7-.1-1.1-.2,.1-.6,0-1.1-.1-1.4s-.3-.6-.5-.8c-.3-.3-.7-.4-1-.5-.4,0-.7,.1-.9,.4-.1,.2-.2,.4-.3,.6s-.1,.5-.1,.8c0,.2,.1,.7,.3,1.6,.2,1.1,.2,1.9,.1,2.5-.1,.6-.4,1-.7,1.4-.5,.5-1.1,.8-1.9,.8-.7,0-1.4-.2-1.9-.7-.4-.4-.7-.9-.8-1.4,0-.8,.1-1.5,.2-2.3Z"/>
      <path d="M124.3,23.1c1.4,1.6,2.8,3.2,4.1,4.9-.3,.2-.5,.4-.8,.6-1.1-1.4-2.2-2.7-3.3-4-.8,.7-1.5,1.4-2.3,2.1,1.1,1.2,2.2,2.5,3.2,3.8-.3,.2-.5,.4-.8,.6-1-1.3-2-2.6-3.1-3.8-1,.9-1.9,1.7-2.9,2.6,1,1.1,2,2.3,2.9,3.6-.3,.2-.5,.4-.8,.6-1.1-1.5-2.3-2.9-3.6-4.2,2.5-2.2,5-4.5,7.4-6.8Z"/>
      <path d="M129.6,29.7c.2,.3,.4,.6,.7,.9-1.6,1.2-3.3,2.3-4.9,3.5-.6,.4-.9,.7-1.1,.8-.3,.3-.5,.6-.6,.9s-.1,.7-.1,1.1c.1,.4,.2,.8,.4,1.1,.2,.3,.4,.5,.7,.7s.6,.3,.9,.4c.3,0,.7,0,1-.1s.7-.3,1.4-.7c1.7-1,3.4-2.1,5.1-3.1,.2,.3,.4,.7,.6,1-1.7,1-3.4,2-5.2,3-.8,.5-1.4,.7-2,.9-.6,.1-1.2,.1-1.8-.2-.6-.2-1.1-.7-1.5-1.3-.4-.7-.7-1.4-.7-2,0-.7,.2-1.3,.6-1.8,.2-.3,.8-.8,1.6-1.4,1.7-1.4,3.3-2.6,4.9-3.7Z"/>
      <path d="M126.2,42.9c3.1-1.2,6.3-2.2,9.5-3.3,0,.1,.1,.1,.1,.2-1.7,2.7-3.5,5.3-5.4,7.7,3.1,.3,6.2,.7,9.3,1.4q0,.1,.1,.2c-2.9,1.7-5.9,3.3-8.9,4.8-.1-.3-.2-.7-.3-1,2.1-1.1,4.2-2.3,6.3-3.4-2.7-.5-5.4-.9-8.1-1.1,0-.1-.1-.2-.1-.2,1.7-2.1,3.3-4.3,4.8-6.7-2.3,.7-4.6,1.5-6.8,2.3-.2-.3-.3-.6-.5-.9Z"/>
    </g>
    <rect class="cls-2" x="1.1" y="60.8" width="17.1" height="15.5"/>
    <text class="cls-3" transform="translate(1.05 71.82)"><tspan x="0" y="0">*</tspan></text>
    <rect class="cls-2" x="133.5" y="60" width="15.1" height="13.9"/>
    <text class="cls-3" transform="translate(133.51 71.02)"><tspan x="0" y="0">*</tspan></text>
  </g>
</svg>