<?xml version="1.0" encoding="UTF-8"?>
<svg id="Layer_2" data-name="Layer 2" xmlns="http://www.w3.org/2000/svg" viewBox="0 0 68.46 76.16">
  <defs>
    <style>
      .cls-1 {
        fill: #f69d10;
        stroke: #f69d10;
        stroke-miterlimit: 10;
      }
    </style>
  </defs>
  <g id="Layer_1-2" data-name="Layer 1-2">
    <path class="cls-1" d="M31.56,11.97c2,0,5,.1,8.6,1.3,3.5,1.2,6,2.9,7.5,4.2,.6-1.9,1.4-5.1,.8-8.9-.2-1.7-.6-4.3-2.5-6.8-.4-.5-.8-.9-1-1.2-.4,.1-.9,.2-1.5,.3-3.7,1-6.1,3.2-7.1,4-2.9,2.6-4.2,5.5-4.8,7.1Z"/>
    <path class="cls-1" d="M40.46,15.37c-1.3,3.7-2.6,7.4-3.9,11.1,1,.7,2.2,1.9,3.4,3.4,1.2,1.6,1.9,3.1,2.3,4.2,3.5-.3,7.1-.6,10.6-.9,.1-1.7,0-5.6-2.3-9.7-3.4-5.7-8.7-7.6-10.1-8.1Z"/>
    <path class="cls-1" d="M38.86,14.87c-1.1,2.9-2.2,5.8-3.2,8.8-.3,.7-.5,1.5-.8,2.2-1-.1-2.6-.2-4.4,.2s-3.2,1.1-4.1,1.7c-2.7-2.3-5.4-4.7-8.1-7,1-1.3,3.5-4.4,7.9-6.1,6.1-2.3,11.3-.3,12.7,.2Z"/>
    <path class="cls-1" d="M34.96,27.97c-.8-.1-1.9-.2-3.2,0-2.2,.3-3.8,1.2-4.8,1.8-1.6,4-3.3,8-4.9,12,.2,1.1,.7,2.8,1.9,4.6,1.1,1.6,2.3,2.6,3.1,3.2,1,.1,2.8,.1,4.8-.6,1.6-.6,2.8-1.4,3.5-2,1.6-4,3.1-8,4.7-12-.2-.9-.7-2.1-1.5-3.4-1.2-2-2.7-3-3.6-3.6Z"/>
    <path class="cls-1" d="M17.06,22.57c2.6,2.1,5.3,4.2,7.9,6.4-1.5,3.8-3.1,7.6-4.6,11.3-3.4-.1-6.8-.1-10.2-.2,.6-2.9,1.6-6.4,3.2-10.2,1.2-2.7,2.5-5.2,3.7-7.3Z"/>
    <path class="cls-1" d="M23.36,61.87c.6-1.8,1.2-3.6,1.9-5.4,.6-1.7,1.2-3.3,1.9-4.9,1.9,0,3.3-.3,4.3-.6,.8-.2,1.4-.4,1.8-.6,1.5-.6,2.7-1.4,3.4-2,2.7,2.1,5.3,4.2,8,6.3-.7,1.3-3.1,5.3-8.2,7.4-6.3,2.8-12.1,.3-13.1-.2h0Z"/>
    <path class="cls-1" d="M9.66,42.27h6.2c1.5,0,2.9-.1,4.4-.1,.4,1.4,1.1,3.3,2.4,5.3,1.1,1.7,2.3,2.9,3.2,3.8-1.3,3.4-2.7,6.7-4,10.1-1.6-.6-5.8-2.5-8.9-7.1-3.5-5.1-3.4-10.4-3.3-12Z"/>
    <path class="cls-1" d="M45.56,53.37c-2.7-2-5.4-4.1-8.1-6.1,1.4-3.8,2.9-7.6,4.3-11.5,3.5-.2,7.1-.4,10.6-.7-.7,3.2-1.7,6.9-3.3,10.8-1.1,2.8-2.3,5.3-3.5,7.5Z"/>
    <path class="cls-1" d="M16.96,19.27c1-1.2,2.4-2.8,4.5-4.2,1.4-.9,2.6-1.5,3.7-2-.6-.7-1.7-1.7-3.5-2.4-.3-.1-2.4-1-4.8-.5-.7,.1-1.6,.4-2.7,.8-1.6,.6-1.6,.9-3,1.6-2.2,1-4.3,1.3-6.7,1.6-.6,.1-1.1,.1-1.4,.2-.3,.3-.5,.7-.5,1,.1,1.6,4.9,2.9,14.4,3.9Z"/>
    <path class="cls-1" d="M.66,60.27c-.2-.9-.5-3.9,1.2-7,2.2-3.8,5.9-4.8,6.6-5,.3,1.5,.9,3.6,2.1,5.8,1.1,1.9,2.2,3.2,3.2,4.2-3.4-1.5-5.5-1.2-6.9-.6-2.5,1.1-4,3.9-5.4,3.4-.4-.1-.7-.6-.8-.8Z"/>
    <path class="cls-1" d="M40.46,75.47c.7-.6,2.9-2.6,3.6-6.1,.8-4.3-1.4-7.5-1.9-8.1-1.2,.9-3,2.1-5.4,3-2,.7-3.8,1-5.1,1.2,3.6,1,5,2.6,5.7,3.9,1.2,2.4,.5,5.5,1.9,6.1,.4,.3,.9,.2,1.2,0Z"/>
    <path class="cls-1" d="M54.46,32.87c0-1.4-.1-3.5-.8-5.8-.5-1.8-1.3-3.3-1.9-4.3,.9-.1,2.4-.2,4.2,.4,.3,.1,2.4,.8,4,2.7,.4,.5,1,1.3,1.6,2.4,.8,1.5,.7,1.8,1.3,3.1,1,2.1,2.5,3.7,4.1,5.5,.4,.4,.8,.8,1,1.1,0,.5,0,.8-.3,1-1.1,1.1-5.5-.9-13.2-6.1Z"/>
    <path class="cls-1" d="M19.56,62.07c.7,.4,1.5,.7,2.3,1.1,1,.4,1.9,.8,2.8,1.1-2,1.2-2.6,1.7-2.8,2l-.4,.6c-.1,.1-.2,.2-.3,.4-.5,.7-1,1.2-1.3,1.5v-1.8c0-.8,.1-1.3,.2-1.7,.2-.7,.1-1.8-.5-3.2Z"/>
  </g>
</svg>