<?xml version="1.0" encoding="UTF-8"?>
<svg id="Layer_1" data-name="Layer 1" xmlns="http://www.w3.org/2000/svg" viewBox="0 0 315.12 275.34">
  <defs>
    <style>
      .cls-1 {
        fill: #e76a48;
      }

      .cls-2 {
        fill: #4c3118;
      }

      .cls-3 {
        fill: #a1cd40;
      }

      .cls-4 {
        fill: #e5d2ac;
      }

      .cls-5 {
        fill: #f26b6c;
      }

      .cls-6 {
        fill: #f9edd3;
      }

      .cls-7 {
        fill: #c67e41;
      }

      .cls-8 {
        opacity: .4;
      }

      .cls-9 {
        fill: #fbea78;
      }

      .cls-10 {
        fill: #525759;
      }

      .cls-11 {
        fill: #f59d1e;
      }

      .cls-12 {
        fill: #dd9341;
      }

      .cls-13 {
        fill: #c6822a;
      }

      .cls-14 {
        fill: #ebe4d9;
      }
    </style>
  </defs>
  <path class="cls-7" d="M175.07,199.37v11.06c-57.73,2.42-115.47,4.85-173.2,7.28-.42-1.16-.85-2.71-1.02-4.57-.21-2.3,.05-4.24,.34-5.59,29.07-.09,59.34-.83,90.71-2.37,28.74-1.4,56.48-3.38,83.17-5.81Z"/>
  <path class="cls-6" d="M105.8,163.86c9.72,2.8,21.06,6.85,33.22,12.82,14.89,7.31,26.88,15.47,36.05,22.69-6.41,.58-14.92,1.33-24.93,2.11-12.79,1-32.14,2.39-55.79,3.58,0,0-28.6,1.43-56.87,2.04-8.89,.19-17.78,.3-17.78,.3-5.66,.07-10.29,.1-13.04,.12-1.91,.01-3.52,.02-4.74,.02,17.11-8.66,35.74-17.31,55.85-25.62,16.63-6.87,32.69-12.85,48.02-18.06Z"/>
  <path class="cls-9" d="M.68,218c-.07,.06-.68,.62-.68,1.59s.61,1.53,.68,1.59l4.43-.2,169.95-7.56c.12-.11,1-.95,1.02-2.39,.02-1.51-.91-2.4-1.02-2.5-58.13,3.15-116.25,6.31-174.38,9.46Z"/>
  <path class="cls-5" d="M6.33,226.26c-.11-.03-1.61-.42-2.03-1.69-.42-1.26,.38-2.91,2.03-3.55,53.87-2.05,107.74-4.11,161.62-6.16,1.21,.29,1.92,1.44,1.7,2.44-.16,.75-.84,1.36-1.7,1.52-53.87,2.48-107.74,4.96-161.62,7.45Z"/>
  <polygon class="cls-1" points="7.85 242.51 7.85 230.16 167.96 222.04 168.8 234.56 7.85 242.51"/>
  <path class="cls-3" d="M5.94,226.02c-2.3-.25-4.46,.85-5.42,2.71-1,1.94-.27,3.9-.14,4.23,.83,2.67,3.2,4.56,5.9,4.74,.62,.04,1.22-.01,1.81-.14,2.27-.51,4.21-2.23,4.96-4.6,.89,2.49,2.96,4.33,5.42,4.74,3.16,.52,6.48-1.41,7.79-4.74,.32,.4,2.34,2.87,5.75,3.05,2.91,.15,5.72-1.43,7.28-4.06,.42,2.54,1.95,4.7,4.06,5.42,3.1,1.05,7.29-1.08,8.63-5.42,1.57,3.07,4.97,4.4,7.62,3.38,2.92-1.13,3.53-4.59,3.55-4.74,1.26,3.83,3.86,5.71,5.25,5.25,1.19-.4,1.9-2.64,1.69-5.25,2.34,2.63,5.81,3.69,8.8,2.71,2.72-.9,4.05-3.16,4.4-3.81,1.2,3.37,4.17,5.77,7.62,6.18,3.9,.46,7.75-1.72,9.48-5.42,.64,.81,3.39,4.08,8.12,4.74,6.8,.95,11.39-4.39,11.68-4.74,2.31,1.56,5.23,1.69,7.45,.34,2.44-1.49,2.96-4.12,3.05-4.57,.69,3.45,3.44,5.99,6.6,6.26,3.63,.31,6.04-2.52,6.26-2.79,2.89,2.24,6.64,2.74,9.65,1.27,2.82-1.38,3.94-3.99,4.23-4.74-.52,2.25,1.06,4.36,3.05,4.57,1.78,.19,3.59-1.19,3.89-3.22,3.42,3.09,6.93,3.8,8.29,2.54,.21-.19,.93-.96,.68-3.05,2.51,1.09,5.17-.23,5.75-2.2,.44-1.48-.29-3.3-1.86-4.35-.38-1.77-1.79-3.14-3.55-3.44-1.68-.29-3.39,.44-4.36,1.86-54.45,2.43-108.9,4.85-163.36,7.28Z"/>
  <path class="cls-7" d="M2.1,243.01c-.4,.52-2,2.72-1.69,5.75,.2,1.91,1.06,3.26,1.52,3.89,38.14,.26,77.9-.55,119.14-2.71,18.34-.96,36.34-2.15,53.99-3.55,.56-.87,2.01-3.35,1.86-6.77-.12-2.83-1.28-4.86-1.86-5.75-57.66,3.05-115.31,6.09-172.97,9.14Z"/>
  <path class="cls-4" d="M172.68,233.26c-1.29-.33-2.58-.66-3.88-.99v1.6c1.29-.2,2.58-.41,3.88-.61Z"/>
  <path class="cls-4" d="M3.38,242.22l4.47-2.76v3.05l-4.47-.29Z"/>
  <path class="cls-4" d="M2.1,243.01c-.37,.04-.82,.09-.82,.13,.02,.43,53.2-1.01,103.44-3.57,16.86-.86,41.32-2.25,71.11-4.47l-.76-1.23L2.1,243.01Z"/>
  <path class="cls-11" d="M188.51,115.75c5.73,35.87,11.45,71.75,17.18,107.62,6.55,3.52,20.97,10.13,40.24,9.68,16.54-.38,29.02-5.78,35.48-9.14,5.01-36.1,10.02-72.2,15.04-108.3-15.73,2.08-33.67,3.53-53.43,3.59-20.2,.05-38.5-1.37-54.5-3.44Z"/>
  <path class="cls-14" d="M299.23,111.01c.07,3.75-29.25,8.42-56.3,8.47-27.44,.05-57.27-4.66-57.2-8.47,.08-3.96,32.65-6.9,57.84-6.81,23.91,.08,55.58,2.93,55.65,6.81Z"/>
  <path class="cls-13" d="M189.31,116.77c-.02,1.22-.03,2.44-.05,3.65,15.34,3.43,35.5,6.37,59.13,5.75,18.6-.49,34.76-3.07,47.82-6.07,.08-1.5,.16-3,.24-4.5-13.87,3.13-31.27,5.84-51.4,6.23-22,.42-40.94-2.06-55.73-5.06Z"/>
  <path class="cls-14" d="M185.81,110.08c-.28,.35-1.32,1.76-1.2,3.78,.09,1.62,.89,2.73,1.2,3.13,16.09,3.89,37.72,7.39,63.27,6.72,19.6-.52,36.55-3.35,50.09-6.6,.34-.47,1.01-1.52,1.15-3.01,.2-2.05-.72-3.55-1.02-4.01h-113.5Z"/>
  <path class="cls-2" d="M291.31,114.33c.02,2.25-25.05,4.98-48.3,4.86-23.22-.12-48.14-3.11-48.09-5.35,.05-2.34,27.35-3.82,47.4-3.76,21.13,.06,48.97,1.87,48.99,4.25Z"/>
  <path class="cls-12" d="M295.5,117.96c-5.03,19.67-14.71,47.28-34.29,75.79-10.82,15.75-22.23,28.23-32.41,37.85,10.44,1.76,26.16,2.67,43.07-3.48,3.47-1.26,6.65-2.7,9.55-4.21,4.7-35.32,9.39-70.64,14.09-105.95Z"/>
  <g class="cls-8">
    <path class="cls-10" d="M273.1,27.53c-2.33,1.1-5.05,2.6-6.21,5.03s-.12,4.78,2.03,6.05c4.63,2.75,11.43,1.08,15.89-1.21,4.95-2.54,9.07-6.73,11.03-11.99,1.94-5.22,1.2-10.91-1.53-15.71s-7.29-8.36-12.63-9.38c-6.6-1.25-13.56,1.18-18.92,4.98s-8.97,8.65-11.19,14.5-2.76,12.41-2.2,18.72c.7,7.89,3.51,15.11,5.85,22.61,2.31,7.41,3.82,15.81,.06,23.03-.69,1.32,2.23,1.13,2.73,.17,6.15-11.8-.58-24.49-3.79-36.04-3.03-10.89-3.43-23.53,2.6-33.52,5.64-9.34,18.79-17.21,29.08-10.22,4.06,2.76,6.93,7.25,7.86,12.06s-.5,10.1-3.64,14.06c-3.46,4.34-8.85,7.36-14.46,7.44-2.34,.03-5.72-.68-6.24-3.42-.55-2.89,2.75-4.73,4.92-5.76,.45-.21,1.14-.74,.74-1.3s-1.46-.33-1.94-.1h0Z"/>
  </g>
  <g class="cls-8">
    <path class="cls-10" d="M212.02,38.19c4.12,1.87,6.13,6.93,4.81,11.2-1.43,4.65-6.56,8.88-11.6,7.41-4.7-1.37-7.96-6.27-9.24-10.76s-.92-9.44,1.39-13.51c2.18-3.83,6.15-7.03,10.59-7.69,5.05-.75,9.98,1.68,13.67,4.96,3.95,3.52,6.97,8.25,8.36,13.36,1.49,5.5,.54,10.76-1.53,15.97-1.14,2.86-2.45,5.64-3.44,8.55s-1.65,5.81-2.05,8.8c-.85,6.36-.36,12.85,1.4,19.02,.16,.57,3.06-.22,2.9-.78-1.76-6.17-2.24-12.65-1.4-19.02,.43-3.21,1.2-6.37,2.3-9.41s2.5-5.92,3.62-8.93c2.08-5.6,2.54-11.27,.48-16.96-1.94-5.37-5.68-10.34-10.43-13.55s-9.8-3.94-15.07-2.61c-4.77,1.2-9.23,4-11.88,8.21s-3.18,9.86-1.7,14.71,5.2,9.89,10.39,10.87c5.63,1.06,12.54-2.21,15.27-7.24,2.58-4.74,.99-11.26-4.1-13.57-.53-.24-1.34,.02-1.86,.21-.11,.04-1.29,.57-.88,.75h0Z"/>
  </g>
</svg>