<?xml version="1.0" encoding="UTF-8"?>
<svg id="Lag_1" data-name="Lag 1" xmlns="http://www.w3.org/2000/svg" viewBox="0 0 432 148.99">
  <defs>
    <style>
      .cls-1 {
        fill: #f59d17;
      }

      .cls-2 {
        fill: #f59d21;
      }
    </style>
  </defs>
  <rect id="Rectangle_97" data-name="Rectangle 97" class="cls-1" y="74.99" width="432" height="74"/>
  <g id="svampe">
    <path id="Path_315" data-name="Path 315" class="cls-2" d="M364.01,29.79c-.55,3.31-16.96,3.09-25.16,2.98-.89-.01-1.86-.02-2.9-.04-8.64-.15-21.38-.64-21.79-3.56-.42-2.99,12-8.85,24.69-8.78,13.04,.07,25.65,6.39,25.16,9.4h0Z"/>
    <path id="Path_316" data-name="Path 316" class="cls-2" d="M335.95,32.73c1.87,.02,3.73,.05,5.59,.08,.02,.92,.25,1.82,.68,2.63,.99,1.65,2.65,2.8,4.55,3.13-4.85,2.1-10.35,2.1-15.2,0,1.75-.29,3.26-1.4,4.08-2.98,.39-.9,.5-1.9,.31-2.87h0Z"/>
    <path id="Path_317" data-name="Path 317" class="cls-2" d="M337.36,40.14c-.11,5.2-.58,10.38-1.41,15.51-.77,4.15-1.3,8.33-1.57,12.54-.12,2.11-.15,3.85-.16,5.02-.15,1.38,.18,2.76,.94,3.92,.92,1.33,2.33,2.23,3.92,2.51,3.17-.48,5.51-3.22,5.49-6.43-.18-1.32-.44-3.27-.78-5.64-.84-5.84-1.43-9.34-1.72-11.29-.79-5.34-1.21-10.74-1.25-16.14h-3.45Z"/>
    <path id="Path_318" data-name="Path 318" class="cls-2" d="M373.89,21.32c2.05-2.09,3.79-4.47,5.17-7.06,1.52-2.85,2.57-5.92,3.13-9.09,.83-3.17,3.78-5.33,7.06-5.17,2.62,.27,4.85,2.01,5.74,4.48,.63,3.24,1.7,6.37,3.19,9.32,1.5,2.96,3.41,5.7,5.66,8.14-3.53,1.69-7.68,1.46-11-.61-1.4-.72-2.97-1.05-4.54-.94-1.15,.09-2.27,.41-3.29,.94-1.97,1.22-4.28,1.77-6.58,1.57-1.62-.16-3.17-.7-4.54-1.57h0Z"/>
    <path id="Path_319" data-name="Path 319" class="cls-2" d="M387.49,19.48c.53,2.56,.43,5.21-.28,7.73-.79,2.16-1.47,4.35-2.04,6.58-.23,.99-.38,1.81-.47,2.35-.75,4.74-.65,9.57,.32,14.26,3.52,8.38,5.23,17.41,5.01,26.49,0,.94,.47,1.82,1.25,2.35,.76,.45,1.69,.5,2.51,.16,.61-.04,1.17-.33,1.57-.78,.68-.91,.17-2.33,0-2.82-1.49-4.43,.2-7.91-2.66-16.77-1.69-5.22-2.51-4.77-3.61-8.47-1.46-5.36-1.29-11.03,.47-16.3,1.48-4.72,2.05-9.67,1.66-14.6l-3.74-.19h0Z"/>
  </g>
</svg>