<?xml version="1.0" encoding="UTF-8"?>
<svg id="Layer_1" data-name="Layer 1" xmlns="http://www.w3.org/2000/svg" viewBox="0 0 181.22 176.86">
  <defs>
    <style>
      .cls-1 {
        fill: #f59d1e;
        stroke: #f59d1e;
        stroke-miterlimit: 10;
      }
    </style>
  </defs>
  <polygon class="cls-1" points="135.21 84.71 132.12 76.44 155.31 86.72 158.7 99.64 172.44 103.55 155.61 103.55 150.5 88.52 135.21 84.71"/>
  <path class="cls-1" d="M128.17,65.82c1.31,3.54,2.63,7.08,3.95,10.62,10.34,27.75,20.68,55.5,31.02,83.26,.63,4.88,.63,11.2-3.14,14.46-8.83,7.63-32.74-6.35-44.66-15.72-7.26-5.71-18.77-16.54-27.67-35.22-11.81,17.22-24.92,26.54-33.33,31.45-15.61,9.09-43.56,19.55-51.58,10.06-2.6-3.09-2.52-7.61-1.88-11.32,14.71-23.84,29.42-47.67,44.13-71.5l-14.92,.03-8.56,13.37-16.35-4.03,14.29-.5,6.38-11.74,23.5-4.17c1.7-2.75,3.4-5.5,5.1-8.26l-25.78-7.4-8.11-11.3-10.25-7.75,14.86,3.88,7.87,11.05,25.28,5.26c2.26-3.66,4.52-7.32,6.78-10.99l-21.81-14.25,2.59-23.05L35.82,1.95l17.04,8.93-2.2,20.97,17.52,12.27-.34,.8c3.15-5.11,6.31-10.22,9.46-15.33-.56-.7-.9-1.58-.9-2.54,0-2.24,1.82-4.06,4.06-4.06,.29,0,.58,.03,.86,.09,.23-.37,.46-.75,.69-1.12,3.88-5.48,10.43-8.4,16.98-7.55,9.3,1.22,13.45,9.39,13.76,10.02,.09,.24,.18,.48,.27,.72,.21-.04,.43-.06,.66-.06,2.24,0,4.05,1.82,4.05,4.06,0,1.46-.77,2.74-1.93,3.46,1.23,3.31,2.46,6.62,3.7,9.93l18.07-11.43-1.2-21.05L153.81,1.95l-10.52,9.62,1.5,23.14-23.14,13.6c1.3,3.5,2.6,6.99,3.9,10.49l28.26-.94,9.64-9.55,15.31-1.27-11.43,5.88-9.92,9.75-29.24,3.15Z"/>
</svg>