<?xml version="1.0" encoding="UTF-8"?>
<svg id="Lag_1" data-name="Lag 1" xmlns="http://www.w3.org/2000/svg" viewBox="0 0 153.86 699.36">
  <defs>
    <style>
      .cls-1 {
        stroke-dasharray: 0 0 0 0 0 0 12.14 12.14;
      }

      .cls-1, .cls-2 {
        fill: none;
        stroke: #f59d17;
        stroke-miterlimit: 10;
        stroke-width: 8px;
      }

      .cls-3 {
        fill: #f59d21;
        stroke: #f59d21;
        stroke-miterlimit: 10;
        stroke-width: 1px;
      }
    </style>
  </defs>
  <g id="natsvaermer">
    <path id="Path_591" data-name="Path 591" class="cls-3" d="M80.21,44.08l-5.03-1.78,13.78-6.75,7.31,3.45,7.16-4.85-6.55,7.8-8.95-3.48-7.72,5.6Z"/>
    <path id="Path_592" data-name="Path 592" class="cls-3" d="M68.72,40c2.15,.77,4.3,1.54,6.46,2.3,16.88,6,33.77,12,50.65,18,2.51,1.61,5.44,4.06,5.48,7.08,.1,7.06-15.68,12.71-24.66,14.59-8.97,1.82-18.25,1.52-27.08-.87,2.6,8.99,3.15,18.45,1.61,27.68-1.86,10.77-7.88,27.8-15.4,27.82-2.44,0-4.51-1.79-5.98-3.53-5.33-16.09-10.66-32.18-15.98-48.26l-5.79,6.93,2.87,9.17-8.23,6.01,5.33-6.82-2.96-7.52,7.21-12.51c-.62-1.86-1.23-3.72-1.85-5.58l-13.46,9.07-8.39-.64-7.58,1.73,7.58-5.38,8.18,.65,12.27-9.67c-.82-2.47-1.64-4.94-2.46-7.42l-15.09,4.57-9.68-10.16-8.6,.73,10.76-4.43,8.87,9.18,12.5-3.35,.24,.47c-1.14-3.45-2.29-6.9-3.43-10.35-1.35-.03-2.43-1.14-2.41-2.5,.01-.56,.21-1.1,.58-1.53,.11-.13,.24-.26,.38-.36-.08-.25-.17-.5-.25-.76-1.04-3.9,.15-8.06,3.11-10.81,4.18-3.84,9.58-2.58,10-2.48l.44,.16c.07-.12,.14-.23,.23-.33,.88-1.03,2.43-1.16,3.46-.28,.64,.55,.96,1.39,.84,2.22,2.01,.72,4.02,1.43,6.04,2.15l1.73-12.82-10.22-7.63,3.02-11.24,.36,8.62,11.31,8.3-2.69,16.01c2.13,.76,4.25,1.52,6.38,2.27l10.56-13.47-.68-8.18,5.37-7.59-1.72,7.59,.66,8.39-9.91,14.78Z"/>
  </g>
  <g id="gult_spor" data-name="gult spor">
    <path id="Path_312" data-name="Path 312" class="cls-2" d="M13.27,696.93c1.22-1.6,2.43-3.2,3.62-4.79"/>
    <path id="Path_313" data-name="Path 313" class="cls-1" d="M23.96,682.28c74.4-48.68,97.68-89.77,104.24-119.65,17.57-80.11-80.48-101.01-59.29-187.03,15.04-61.08,69.76-72.07,79.57-138.76,6.4-43.43-10.73-80.09-29.55-106.77"/>
    <path id="Path_314" data-name="Path 314" class="cls-2" d="M117,124.32c-.68-1.93-1.36-3.8-2.04-5.64"/>
  </g>
</svg>