<?xml version="1.0" encoding="UTF-8"?>
<svg id="Layer_1" data-name="Layer 1" xmlns="http://www.w3.org/2000/svg" viewBox="0 0 341.87 396.03">
  <defs>
    <style>
      .cls-1 {
        fill: #f59d1e;
        stroke: #f59d1e;
        stroke-miterlimit: 10;
      }
    </style>
  </defs>
  <path class="cls-1" d="M251.43,42.72c-1.94,4.9-2.6,9.51-.46,12.71,3.71,5.56,12.15,1.38,20.34,7.4,7.74,5.68,6.35,13.78,12.02,15.03,4.4,.96,9.35-3.57,13.64-9.02,1.74-2.51,5.22-8.29,5.42-16.23,.06-2.15,.38-14.56-8.89-21.46-8.25-6.13-18.55-3.68-22.19-2.77-11.75,2.93-18.11,11.69-19.88,14.33Z"/>
  <ellipse class="cls-1" cx="271.5" cy="14.52" rx="10.75" ry="7.51" transform="translate(218.74 281.24) rotate(-81.87)"/>
  <ellipse class="cls-1" cx="317.77" cy="46.77" rx="10.75" ry="7.51" transform="translate(31.12 191.66) rotate(-35.19)"/>
  <ellipse class="cls-1" cx="311.5" cy="25.17" rx="10.75" ry="7.51" transform="translate(84.8 240.29) rotate(-48.12)"/>
  <ellipse class="cls-1" cx="294.32" cy="10.8" rx="10.75" ry="7.51" transform="translate(165.79 275.78) rotate(-66.23)"/>
  <path class="cls-1" d="M265.23,167.02c-1.94,4.9-2.6,9.51-.46,12.71,3.71,5.56,12.15,1.38,20.34,7.4,7.74,5.68,6.35,13.78,12.02,15.03,4.4,.96,9.35-3.57,13.64-9.02,1.74-2.51,5.22-8.29,5.42-16.23,.06-2.15,.38-14.56-8.89-21.46-8.25-6.13-18.55-3.68-22.19-2.77-11.75,2.93-18.11,11.69-19.88,14.33Z"/>
  <ellipse class="cls-1" cx="285.31" cy="138.81" rx="10.75" ry="7.51" transform="translate(107.54 401.62) rotate(-81.87)"/>
  <ellipse class="cls-1" cx="331.57" cy="171.06" rx="10.75" ry="7.51" transform="translate(-37.99 222.33) rotate(-35.19)"/>
  <ellipse class="cls-1" cx="325.31" cy="149.47" rx="10.75" ry="7.51" transform="translate(-3.15 291.88) rotate(-48.12)"/>
  <ellipse class="cls-1" cx="308.12" cy="135.09" rx="10.75" ry="7.51" transform="translate(60.27 362.6) rotate(-66.23)"/>
  <path class="cls-1" d="M130.27,207.18c-1.94,4.9-2.6,9.51-.46,12.71,3.71,5.56,12.15,1.38,20.34,7.4,7.74,5.68,6.35,13.78,12.02,15.03,4.4,.96,9.35-3.57,13.64-9.02,1.74-2.51,5.22-8.29,5.42-16.23,.06-2.15,.38-14.56-8.89-21.46-8.25-6.13-18.55-3.68-22.19-2.77-11.75,2.93-18.11,11.69-19.88,14.33Z"/>
  <ellipse class="cls-1" cx="150.35" cy="178.97" rx="10.75" ry="7.51" transform="translate(-48.09 302.5) rotate(-81.87)"/>
  <ellipse class="cls-1" cx="196.61" cy="211.22" rx="10.75" ry="7.51" transform="translate(-85.79 151.9) rotate(-35.19)"/>
  <ellipse class="cls-1" cx="190.35" cy="189.63" rx="10.75" ry="7.51" transform="translate(-77.91 204.75) rotate(-48.12)"/>
  <ellipse class="cls-1" cx="173.16" cy="175.25" rx="10.75" ry="7.51" transform="translate(-57.03 263.07) rotate(-66.23)"/>
  <path class="cls-1" d="M150.96,338.81c-1.94,4.9-2.6,9.51-.46,12.71,3.71,5.56,12.15,1.38,20.34,7.4,7.74,5.68,6.35,13.78,12.02,15.03,4.4,.96,9.35-3.57,13.64-9.02,1.74-2.51,5.22-8.29,5.42-16.23,.06-2.15,.38-14.56-8.89-21.46-8.25-6.13-18.55-3.68-22.19-2.77-11.75,2.93-18.11,11.69-19.88,14.33Z"/>
  <ellipse class="cls-1" cx="171.04" cy="310.6" rx="10.75" ry="7.51" transform="translate(-160.63 436) rotate(-81.87)"/>
  <ellipse class="cls-1" cx="217.31" cy="342.85" rx="10.75" ry="7.51" transform="translate(-157.86 187.88) rotate(-35.19)"/>
  <ellipse class="cls-1" cx="211.04" cy="321.25" rx="10.75" ry="7.51" transform="translate(-169.03 263.91) rotate(-48.12)"/>
  <ellipse class="cls-1" cx="193.85" cy="306.88" rx="10.75" ry="7.51" transform="translate(-165.13 360.56) rotate(-66.23)"/>
  <path class="cls-1" d="M2.29,350.49c-1.94,4.9-2.6,9.51-.46,12.71,3.71,5.56,12.15,1.38,20.34,7.4,7.74,5.68,6.35,13.78,12.02,15.03,4.4,.96,9.35-3.57,13.64-9.02,1.74-2.51,5.22-8.29,5.42-16.23,.06-2.15,.38-14.56-8.89-21.46-8.25-6.13-18.55-3.68-22.19-2.77-11.75,2.93-18.11,11.69-19.88,14.33Z"/>
  <ellipse class="cls-1" cx="22.37" cy="322.28" rx="10.75" ry="7.51" transform="translate(-299.84 298.85) rotate(-81.87)"/>
  <ellipse class="cls-1" cx="68.63" cy="354.53" rx="10.75" ry="7.51" transform="translate(-191.76 104.34) rotate(-35.19)"/>
  <ellipse class="cls-1" cx="62.37" cy="332.94" rx="10.75" ry="7.51" transform="translate(-227.15 157.1) rotate(-48.12)"/>
  <ellipse class="cls-1" cx="45.18" cy="318.56" rx="10.75" ry="7.51" transform="translate(-264.56 231.48) rotate(-66.23)"/>
</svg>