<?xml version="1.0" encoding="UTF-8"?>
<svg id="Layer_1" data-name="Layer 1" xmlns="http://www.w3.org/2000/svg" viewBox="0 0 221.85 197">
  <defs>
    <style>
      .cls-1 {
        fill: #f59d1e;
      }
    </style>
  </defs>
  <path class="cls-1" d="M123.31,73.71c-1.35,8.19-41.94,7.64-62.23,7.37-2.2-.03-4.61-.06-7.17-.11-21.36-.37-52.88-1.57-53.89-8.81-1.04-7.4,29.67-21.88,61.06-21.71,32.26,.17,63.45,15.8,62.23,23.26Z"/>
  <path class="cls-1" d="M53.92,80.97c4.61,.06,9.21,.13,13.82,.19,.04,1.57,.33,3.99,1.69,6.51,3.32,6.18,10.16,7.55,11.24,7.75-3.83,1.65-10.8,4.06-19.77,3.88-7.94-.16-14.15-2.29-17.83-3.88,.61-.1,7.42-1.33,10.08-7.37,1.31-2.98,1.02-5.76,.78-7.09Z"/>
  <path class="cls-1" d="M57.4,99.31c-.39,16.54-2.02,29.44-3.49,38.37-1.11,6.74-3.04,16.71-3.88,31.02-.3,5.21-.38,9.52-.39,12.41-.14,1.19-.48,5.51,2.33,9.69,3.39,5.05,8.76,6.05,9.7,6.2,1.2-.19,6.32-1.12,10.08-5.82,3.35-4.19,3.5-8.74,3.49-10.08-.44-3.26-1.1-8.1-1.94-13.96-2.07-14.44-3.53-23.1-4.26-27.91-1.4-9.21-2.89-22.53-3.1-39.92h-8.53Z"/>
  <path class="cls-1" d="M147.74,52.77c3.79-3.86,8.62-9.61,12.79-17.45,4.67-8.76,6.75-16.83,7.75-22.49C170.57,4.72,178.05-.56,185.73,.05c6.27,.49,11.83,4.85,14.2,11.08,1.16,5.99,3.39,14.14,7.9,23.04,4.55,8.98,9.85,15.64,14.02,20.14-2.28,1.09-7.19,3.06-13.63,2.74-6.63-.33-11.42-2.92-13.57-4.26-1.81-.93-5.9-2.72-11.24-2.33-3.66,.27-6.47,1.46-8.14,2.33-2.08,1.28-8.16,4.67-16.28,3.88-5.27-.51-9.16-2.56-11.24-3.88Z"/>
  <path class="cls-1" d="M181.38,48.21c1.56,8.7,.55,14.97-.69,19.12-1.15,3.88-3.18,8.18-5.04,16.28-.56,2.45-.94,4.49-1.16,5.82-.83,5.24-1.42,11.67-1.16,19,.22,6.2,1,11.68,1.94,16.28,3.39,8.06,6.88,18.23,9.3,30.24,2.76,13.66,3.33,25.74,3.1,35.28,0,.16-.04,3.86,3.1,5.82,2.91,1.81,5.96,.5,6.2,.39,1.24-.17,2.9-.62,3.88-1.94,1.67-2.26,.41-5.77,0-6.98-3.69-10.95,.49-19.56-6.59-41.48-4.17-12.9-6.22-11.8-8.92-20.94-4.66-15.77-1.89-30.42,1.16-40.32,1.37-4.37,2.67-9.58,3.49-15.51,1.1-7.94,1.06-14.95,.62-20.58-3.08-.16-6.16-.32-9.24-.48Z"/>
</svg>