<?xml version="1.0" encoding="UTF-8"?>
<svg id="Lag_1" data-name="Lag 1" xmlns="http://www.w3.org/2000/svg" viewBox="0 0 230.97 849.52">
  <defs>
    <style>
      .cls-1 {
        fill: #f59d21;
      }

      .cls-2 {
        stroke-dasharray: 0 0 0 0 0 0 12.14 12.14;
      }

      .cls-2, .cls-3 {
        fill: none;
        stroke: #f59d21;
        stroke-miterlimit: 10;
        stroke-width: 8px;
      }
    </style>
  </defs>
  <g id="bille">
    <path id="Path_301" data-name="Path 301" class="cls-1" d="M145.16,48.07c5.63-3.7,11.99-6.16,18.64-7.23,5.29-.83,10.71-.22,15.7,1.77,4.8,3.02,8.48,7.53,10.47,12.84,3.1,7.75,2.75,15.66,2.36,19.61-5.14-7.59-11.89-13.94-19.77-18.62-8.39-4.83-17.75-7.7-27.4-8.37Z"/>
    <path id="Path_302" data-name="Path 302" class="cls-1" d="M166.41,61.35l-61.68,98.68c-9.21-8.32-15.09-19.68-16.58-32-2.85-22.04,8.13-39.46,10.49-43.05,1.48-2.76,11.97-21.67,33.29-27.76,11.58-3.39,24.03-1.89,34.47,4.13h0Z"/>
    <path id="Path_303" data-name="Path 303" class="cls-1" d="M172.1,64.91l-61.68,98.68c11.5,4.63,24.3,4.94,36.02,.87,21.06-7.1,31.91-24.6,34.1-28.3,1.83-2.53,14.24-20.25,10.36-42.09-2.03-11.89-8.83-22.43-18.81-29.17h0Z"/>
    <path id="Path_304" data-name="Path 304" class="cls-1" d="M189.63,57.4c6.13-5.12,13.45-8.61,21.28-10.16,6.23-1.19,12.65-.88,18.73,.92,.76,.07,1.33,.71,1.33,1.47-.08,1.02-.93,1.8-1.96,1.78-5.52-1.62-11.34-1.95-17.01-.96-8,1.48-15.47,5.09-21.6,10.44-.27-1.16-.52-2.33-.78-3.49Z"/>
    <path id="Path_305" data-name="Path 305" class="cls-1" d="M162.93,40.72c1.92-7.75,1.85-15.86-.19-23.58-1.66-6.12-4.75-11.76-9.03-16.44-.4-.65-1.22-.89-1.91-.56-.88,.52-1.21,1.63-.74,2.54,3.88,4.25,6.72,9.34,8.31,14.87,2.17,7.84,2.21,16.13,.08,23.99,1.17-.26,2.33-.55,3.49-.83Z"/>
    <path id="Path_306" data-name="Path 306" class="cls-1" d="M187.75,108.84l20.53,1.44,19.21-15.42c.66-.65,1.73-.65,2.41-.02,.43,.56,.51,1.32,.2,1.95-6.71,5.69-13.4,11.39-20.11,17.08l-23.1-1.13,.87-3.9h0Z"/>
    <path id="Path_307" data-name="Path 307" class="cls-1" d="M119.5,62.64l-10.29-17.82,5.44-24.03c.29-.88-.17-1.84-1.04-2.17-.69-.14-1.41,.12-1.84,.69-2.18,8.52-4.36,17.04-6.54,25.56l11.14,20.27,3.13-2.5h0Z"/>
    <path id="Path_308" data-name="Path 308" class="cls-1" d="M182.87,129.7l21.27,6.17,14.09,17.66c-.06,.54-.29,2.53-1.24,2.91-.67,.26-1.39-.38-1.86-.84-2.75-2.72-11.18-14.07-12.58-15.96-7-1.7-14-3.41-21-5.11l1.32-4.83h0Z"/>
    <path id="Path_309" data-name="Path 309" class="cls-1" d="M103.71,80.23l-14.87-16.42-22.05-4.93c-.46,.29-2.14,1.37-2.07,2.39,.06,.71,.95,1.09,1.57,1.3,3.65,1.28,17.55,3.88,19.86,4.31,4.6,5.55,9.2,11.09,13.8,16.64l3.76-3.3h0Z"/>
    <path id="Path_310" data-name="Path 310" class="cls-1" d="M88.43,111.37l-27.77-.08-20.45,19.82c-.61,.93-.5,2.16,.26,2.97,.68,.55,1.62,.63,2.38,.19l19.78-18.74c8.39,.4,16.8,.8,25.2,1.2,.21-1.78,.41-3.58,.61-5.36h0Z"/>
    <path id="Path_311" data-name="Path 311" class="cls-1" d="M161.49,155.26l12.25,24.92-8.85,27.07c-.56,.96-1.72,1.4-2.78,1.07-.8-.37-1.28-1.19-1.21-2.06l8.18-25.99c-4.04-7.37-8.08-14.75-12.12-22.13,1.51-.97,3.05-1.93,4.56-2.9v.02Z"/>
  </g>
  <g id="gult_spor" data-name="gult spor">
    <path id="Path_312" data-name="Path 312" class="cls-3" d="M88.48,198.01c-1.28,1.56-2.54,3.11-3.78,4.66"/>
    <path id="Path_313" data-name="Path 313" class="cls-2" d="M77.28,212.28c-39.22,52.43-51.96,98.25-55.88,131.98-10.5,90.44,39.66,118.11,27.19,215.14-8.85,68.89-37.25,79.22-43.51,154.71-4.08,49.16,4.09,91.54,13.31,122.65"/>
    <path id="Path_314" data-name="Path 314" class="cls-3" d="M20.17,842.56c.61,1.95,1.23,3.85,1.84,5.71"/>
  </g>
</svg>