<?xml version="1.0" encoding="utf-8"?>
<!-- Generator: Adobe Illustrator 27.0.0, SVG Export Plug-In . SVG Version: 6.00 Build 0)  -->
<svg version="1.1" id="Lag_1" xmlns="http://www.w3.org/2000/svg" xmlns:xlink="http://www.w3.org/1999/xlink" x="0px" y="0px"
	 viewBox="0 0 1984.25 1984.25" style="enable-background:new 0 0 1984.25 1984.25;" xml:space="preserve">
<style type="text/css">
	.st0{fill:#F59D21;}
	.st1{fill:none;stroke:#F59D21;stroke-width:8;stroke-miterlimit:10;}
	.st2{fill:none;stroke:#F59D21;stroke-width:8;stroke-miterlimit:10;stroke-dasharray:0,0,12.14,12.14;}
</style>
<g>
	<g id="bille" transform="matrix(0.848, 0.53, -0.53, 0.848, 116.841, -21.962)">
		<path id="Path_301" class="st0" d="M1105.2,61.47c2.81-6.12,6.9-11.58,11.97-16.01c4.05-3.51,8.97-5.86,14.25-6.82
			c5.67,0.02,11.18,1.89,15.69,5.34c6.74,4.93,10.63,11.82,12.39,15.38c-8.38-3.71-17.47-5.52-26.63-5.31
			C1123.2,54.4,1113.74,56.93,1105.2,61.47z"/>
		<path id="Path_302" class="st0" d="M1130.25,61.47v116.37c-12.22-2.17-23.23-8.69-31.02-18.35
			c-14.1-17.18-14.02-37.77-13.92-42.07c-0.21-3.12-1.34-24.72,13.52-41.18C1106.85,67.23,1118.2,61.9,1130.25,61.47L1130.25,61.47z
			"/>
		<path id="Path_303" class="st0" d="M1136.97,61.47v116.37c12.21-2.17,23.23-8.69,31.01-18.35c14.1-17.18,14.02-37.77,13.92-42.07
			c0.21-3.12,1.34-24.72-13.52-41.18C1160.36,67.23,1149.01,61.9,1136.97,61.47L1136.97,61.47z"/>
		<path id="Path_304" class="st0" d="M1147.85,45.82c2.48-7.59,6.84-14.43,12.66-19.89c4.65-4.31,10.26-7.45,16.37-9.15
			c0.68-0.34,1.5-0.1,1.91,0.54c0.47,0.91,0.16,2.02-0.72,2.55c-5.54,1.55-10.65,4.36-14.93,8.2c-6,5.5-10.42,12.51-12.78,20.3
			C1149.52,47.53,1148.69,46.67,1147.85,45.82z"/>
		<path id="Path_305" class="st0" d="M1116.37,45.82c-2.48-7.59-6.84-14.43-12.66-19.89c-4.65-4.31-10.26-7.45-16.37-9.15
			c-0.68-0.34-1.51-0.11-1.92,0.54c-0.47,0.91-0.16,2.02,0.72,2.55c5.54,1.55,10.65,4.36,14.93,8.2c6,5.5,10.42,12.51,12.78,20.3
			C1114.7,47.53,1115.54,46.67,1116.37,45.82z"/>
		<path id="Path_306" class="st0" d="M1173.52,90.43l18.17-9.66l8.12-23.26c0.22-0.9,1.12-1.47,2.03-1.29
			c0.66,0.25,1.13,0.85,1.2,1.55c-2.67,8.38-5.33,16.76-8,25.14l-20.19,11.29L1173.52,90.43L1173.52,90.43z"/>
		<path id="Path_307" class="st0" d="M1091.16,87.43l-18.17-9.66l-8.12-23.26c-0.22-0.9-1.12-1.47-2.03-1.29
			c-0.66,0.25-1.13,0.85-1.2,1.56c2.67,8.38,5.33,16.76,8,25.14l20.19,11.29L1091.16,87.43L1091.16,87.43z"/>
		<path id="Path_308" class="st0" d="M1180.44,110.71l21.31-6.04l21.31,7.51c0.24,0.49,1.09,2.3,0.49,3.12
			c-0.43,0.57-1.38,0.42-2.02,0.27c-3.77-0.85-16.94-6.01-19.13-6.87c-6.84,2.27-13.68,4.53-20.52,6.8L1180.44,110.71
			L1180.44,110.71z"/>
		<path id="Path_309" class="st0" d="M1087.09,110.71l-21.31-6.04l-21.31,7.51c-0.24,0.49-1.09,2.3-0.49,3.12
			c0.43,0.57,1.38,0.42,2.02,0.27c3.77-0.85,16.94-6.01,19.13-6.87c6.84,2.27,13.68,4.53,20.52,6.8L1087.09,110.71L1087.09,110.71z"
			/>
		<path id="Path_310" class="st0" d="M1090.64,145.22l-23.59,14.65l-6.84,27.65c-0.03,1.11,0.72,2.1,1.79,2.38
			c0.87,0.11,1.71-0.33,2.12-1.1l6.84-26.37c7.33-4.11,14.67-8.23,22.01-12.34C1092.2,148.47,1091.42,146.84,1090.64,145.22
			L1090.64,145.22z"/>
		<path id="Path_311" class="st0" d="M1175.85,143.71l23.59,14.64l6.84,27.65c0.03,1.11-0.72,2.1-1.79,2.38
			c-0.87,0.11-1.71-0.33-2.12-1.1l-6.84-26.37c-7.33-4.11-14.67-8.23-22.01-12.34c0.77-1.62,1.56-3.25,2.33-4.88L1175.85,143.71z"/>
	</g>
	<g id="gult_spor" transform="translate(0.016 196.02)">
		<path id="Path_312" class="st1" d="M964.77,569.84c-1.28,1.56-2.54,3.11-3.78,4.66"/>
		<path id="Path_313" class="st2" d="M953.57,584.11c-39.22,52.43-51.96,98.25-55.88,131.98c-10.5,90.44,39.66,118.11,27.19,215.14
			c-8.85,68.89-37.25,79.22-43.51,154.71c-4.08,49.16,4.09,91.54,13.31,122.65"/>
		<path id="Path_314" class="st1" d="M896.46,1214.39c0.61,1.95,1.23,3.85,1.84,5.71"/>
	</g>
</g>
</svg>
