<?xml version="1.0" encoding="utf-8"?>
<!-- Generator: Adobe Illustrator 27.0.0, SVG Export Plug-In . SVG Version: 6.00 Build 0)  -->
<svg version="1.1" id="Lag_1" xmlns="http://www.w3.org/2000/svg" xmlns:xlink="http://www.w3.org/1999/xlink" x="0px" y="0px"
	 viewBox="0 0 1984.25 1984.25" style="enable-background:new 0 0 1984.25 1984.25;" xml:space="preserve">
<style type="text/css">
	.st0{fill:#6C9887;}
	.st1{fill:none;stroke:#6C9887;stroke-width:2;stroke-miterlimit:10;}
	.st2{fill:none;stroke:#6C9887;stroke-miterlimit:10;}
	.st3{fill:none;stroke:#6C9887;stroke-width:3;stroke-miterlimit:10;}
</style>
<g>
	<g id="Layer_1" transform="translate(-8.506 146.666) rotate(-25)">
		<g id="Group_66" transform="translate(62.978 69.442)">
			<path id="Path_468" class="st0" d="M390.29,1141.97c5.5,2.76,10.16,7.58,11.77,13.52c1.61,5.94-0.26,12.93-5.23,16.56
				c-4.98,3.63-12.87,2.93-16.49-2.05c10.26,10.48,20.52,20.97,30.79,31.45c-4.39-1.26-8.77-2.51-13.16-3.76
				c7.88,13.57,17.9,28.61,33.47,30.57c13.08,1.65,25.66-7.22,32.43-18.53c6.77-11.31,8.9-24.7,10.92-37.73
				c-5.31,4.67-10.63,9.35-15.95,14.02c8.28-15.68,9.44-34.17,3.17-50.76c-2.76,7.54-8.04,13.9-14.94,18.01
				c-5.98-3.48-9.31-10.4-10.15-17.27s0.43-13.81,1.7-20.61c-4.78,5.85-11.97,9.18-19.52,9.04c-4.28-0.11-7.27-2.16-11.19-3.13
				c-5.35-1.34-4.02-2.4-5.38,2.06C400.03,1131.54,401.53,1139.52,390.29,1141.97L390.29,1141.97z"/>
			<path id="Path_469" class="st0" d="M449.03,1249.5c-2.27-31.62-10.31-62.55-23.73-91.27"/>
			<path id="Path_470" class="st0" d="M426.67,1197.3c5.27,3.72,10.55,7.45,15.83,11.17c2.73-11.71,5.46-23.43,8.2-35.14"/>
		</g>
		<g id="Group_67" transform="translate(0 0)">
			<path id="Path_471" class="st1" d="M482.38,1115.4c-6.16,14.88-14.98,28.51-26.03,40.23c-12.18,13.03-27.05,23-40.09,35.11
				c-11.42,10.62-21.84,23.65-24.69,38.23c-2.49,12.76,2.39,26.43,14.83,29.61c5.31,1.36,11.62,0.34,17.13-2.56
				c4.6-2.44,11.57-8.15,11.1-13.53c-0.08-1.31-0.82-2.49-1.95-3.15"/>
			<path id="Path_472" class="st1" d="M455.17,1139.42c-4.5,14.62-15.71,25.68-27.52,34.96c-11.81,9.28-24.69,17.47-34.36,28.96
				c-9.67,11.5-15.85,27.35-11.58,42.75"/>
			<path id="Path_473" class="st2" d="M422.48,1241.73c-0.73,3.19-5.05,5.16-7.94,4.31s-4.51-3.59-5.48-6.39
				c-2.38-6.82-1.97-14.98,1.11-22.6c3.3-7.88,8.83-14.62,15.9-19.41"/>
			<path id="Path_474" class="st3" d="M572.23,1159.9c20.1,17.64,27.07,46.93,24.41,73.94c-1.67,17.02-6.67,33.5-12.76,49.41
				c-4.65,12.17-9.46,33.11-26.05,32.73"/>
			<path id="Path_475" class="st1" d="M567.39,1199.29c11.57,28.63,8.73,62.97-7.4,89.67"/>
			<path id="Path_476" class="st1" d="M553.66,1250.54c3.12,8.6,2.16,18.16-2.61,25.97"/>
		</g>
		<path id="Path_477" class="st1" d="M568.47,1201.82c-3.05-7.49-8.37-13.83-15.22-18.13"/>
	</g>
	<g id="Layer_1-2" transform="translate(286.812 -9.18) rotate(71)">
		<g id="Group_68" transform="translate(0 28.197)">
			<path id="Path_478" class="st0" d="M1075.52-481.41c13.46-2.05,26.78,1.26,36.44,9.06c0.22-7.92,2.43-15.65,6.43-22.49
				c4.88,3.87,9.83,7.8,13.32,13.01c3.84,5.45,5.23,12.25,3.84,18.76c-1.89,7.95-5.03,19.77-9.27,24.3
				c-4.15,4.41-8.42,3.56-16.94,6.53c-15.31,5.33-18.97,5.6-27.15,3.16c-4.64-1.38-10.53-3.41-12.67-7.89
				c5.4-3.31,10.8-6.62,16.19-9.94c2.37-1.45,4.28-2,3.01-4.53c-0.87-1.75-3.22-3.06-4.48-4.55c-2.91-3.47-5.15-7.46-6.61-11.75
				c-0.36-1.07-3.03-13.54-2.15-13.68H1075.52z"/>
			<path id="Path_479" class="st0" d="M1142.77-442.5c-17.98,9.02-31.48,6.59-33.44-6.03c0.94,2.52,3.74,3.29,6.24,4.45
				c2.48,1.03,5.12,1.67,7.8,1.88C1130.49-441.35,1135.79-442.23,1142.77-442.5L1142.77-442.5z"/>
		</g>
		<path id="Path_480" class="st1" d="M1145.69-475.59c14.54,9.41,23.67,25.25,24.54,42.55"/>
		<path id="Path_481" class="st3" d="M1145.7-494.84c17.25,2.45,31.7,14.3,37.46,30.74"/>
	</g>
</g>
</svg>
