<?xml version="1.0" encoding="UTF-8"?>
<svg id="Lag_1" data-name="Lag 1" xmlns="http://www.w3.org/2000/svg" viewBox="0 0 276.63 265.56">
  <defs>
    <style>
      .cls-1 {
        stroke-width: 3px;
      }

      .cls-1, .cls-2, .cls-3, .cls-4, .cls-5 {
        fill: none;
        stroke: #6c9887;
      }

      .cls-1, .cls-3 {
        stroke-miterlimit: 10;
      }

      .cls-2 {
        stroke-width: 3px;
      }

      .cls-2, .cls-4, .cls-5 {
        stroke-miterlimit: 10;
      }

      .cls-6 {
        fill: #6c9887;
      }

      .cls-3 {
        stroke-width: 2px;
      }

      .cls-4 {
        stroke-width: 1px;
      }

      .cls-5 {
        stroke-width: 2px;
      }
    </style>
  </defs>
  <g id="Layer_1" data-name="Layer 1">
    <g id="Group_66" data-name="Group 66">
      <path id="Path_468" data-name="Path 468" class="cls-6" d="M60.85,192.93c6.15,.18,12.41,2.58,16.38,7.28,3.97,4.7,5.23,11.83,2.26,17.22-2.98,5.39-10.43,8.09-15.81,5.11,13.73,5.16,27.46,10.33,41.2,15.49-4.51,.71-9.01,1.43-13.52,2.15,12.88,8.97,28.31,18.36,43.25,13.56,12.55-4.03,20.2-17.39,21.56-30.5s-2.37-26.15-6.05-38.81c-2.84,6.48-5.68,12.97-8.53,19.45,.88-17.71-5.89-34.96-18.58-47.34,.69,8-1.41,16-5.93,22.64-6.89-.63-12.83-5.49-16.5-11.36s-5.45-12.7-7.17-19.4c-1.86,7.32-6.97,13.38-13.87,16.44-3.93,1.71-7.5,1.11-11.46,1.89-5.42,1.05-4.66-.48-4.01,4.14,1.19,8.47,5.92,15.07-3.23,22.04h0Z"/>
      <path id="Path_469" data-name="Path 469" class="cls-6" d="M159.53,265.56c-15.42-27.7-35.78-52.33-60.08-72.69"/>
      <path id="Path_470" data-name="Path 470" class="cls-6" d="M117.2,227.7c6.35,1.14,12.71,2.29,19.07,3.43-2.47-11.77-4.95-23.54-7.42-35.31"/>
    </g>
    <g id="Group_67" data-name="Group 67">
      <path id="Path_471" data-name="Path 471" class="cls-5" d="M46.66,93.61c.71,16.09-1.53,32.17-6.59,47.46-5.53,16.96-14.8,32.28-21.5,48.76-5.86,14.45-9.8,30.66-6.22,45.08,3.14,12.62,13.34,22.94,25.95,20.57,5.39-1.01,10.67-4.6,14.44-9.56,3.14-4.16,7.04-12.28,4.34-16.95-.63-1.15-1.8-1.91-3.1-2.03"/>
      <path id="Path_472" data-name="Path 472" class="cls-5" d="M32.15,126.88c2.1,15.15-3.39,29.91-10.17,43.31-6.78,13.4-14.99,26.27-18.9,40.77-3.9,14.51-2.81,31.49,7.57,43.64"/>
      <path id="Path_473" data-name="Path 473" class="cls-4" d="M45.76,233.42c.69,3.2-2.4,6.81-5.37,7.26s-5.6-1.35-7.67-3.48c-5.04-5.18-8.12-12.74-8.55-20.95-.34-8.54,1.82-16.98,6.21-24.31"/>
      <path id="Path_474" data-name="Path 474" class="cls-2" d="M146.9,95.97c25.67,7.49,44.37,31.09,53.37,56.7,5.68,16.13,8.11,33.18,9.32,50.17,.93,12.99,5.42,34.01-9.78,40.67"/>
      <path id="Path_475" data-name="Path 475" class="cls-5" d="M159.16,133.72c22.59,21.06,34.52,53.38,31.19,84.4"/>
      <path id="Path_476" data-name="Path 476" class="cls-5" d="M168.37,185.97c6.46,6.48,9.63,15.55,8.61,24.64"/>
    </g>
    <path id="Path_477" data-name="Path 477" class="cls-5" d="M161.2,135.55c-5.93-5.5-13.43-9-21.46-10"/>
  </g>
  <g id="Layer_1-2" data-name="Layer 1-2">
    <g id="Group_68" data-name="Group 68">
      <path id="Path_478" data-name="Path 478" class="cls-6" d="M212.08,.11c6.32,12.06,7.53,25.73,3.3,37.4,7.56-2.37,15.59-2.8,23.36-1.24-2.07,5.87-4.17,11.83-7.96,16.83-3.9,5.41-9.88,8.93-16.49,9.74-8.13,.8-20.33,1.68-25.99-.85-5.52-2.49-6.11-6.8-11.69-13.89-10.02-12.74-11.47-16.11-11.83-24.64-.21-4.84-.2-11.07,3.34-14.55,4.89,4.03,9.78,8.06,14.67,12.07,2.14,1.77,3.28,3.4,5.26,1.37,1.37-1.39,1.84-4.04,2.84-5.72,2.33-3.88,5.38-7.3,8.96-10.08,.89-.69,11.82-7.27,12.23-6.49v.04s0,0,0,0Z"/>
      <path id="Path_479" data-name="Path 479" class="cls-6" d="M197.18,76.36c-14.38-14.06-16.48-27.62-5.19-33.58-2.08,1.71-1.89,4.61-2.18,7.35-.17,2.68,.09,5.38,.76,7.99,1.51,7.01,4.07,11.73,6.6,18.25h0Z"/>
    </g>
    <path id="Path_480" data-name="Path 480" class="cls-3" d="M256.08,59.17c-4.16,16.81-16.17,30.6-32.24,37.06"/>
    <path id="Path_481" data-name="Path 481" class="cls-1" d="M274.29,52.91c3.3,17.11-3.2,34.63-16.87,45.43"/>
  </g>
</svg>