<?xml version="1.0" encoding="UTF-8"?>
<svg id="Lag_1" data-name="Lag 1" xmlns="http://www.w3.org/2000/svg" viewBox="0 0 1277.23 306.24">
  <defs>
    <style>
      .cls-1 {
        stroke-dasharray: 0 0 0 0 0 0 12.14 12.14;
      }

      .cls-1, .cls-2 {
        fill: none;
        stroke: #6c9887;
        stroke-miterlimit: 10;
        stroke-width: 8px;
      }

      .cls-3 {
        fill: #fff;
      }

      .cls-4 {
        fill: #6c9887;
      }
    </style>
  </defs>
  <g id="Firben_ikon" data-name="Firben ikon">
    <path id="Path_320" data-name="Path 320" class="cls-4" d="M74.23,.19c-1.21-.2-2.44-.24-3.66-.12-4.03,.39-8.3,2.58-16.3,12.77-5.06,6.44-10.95,14.06-15.41,26.21-1.34,3.65-2.43,7.38-3.27,11.17-.18,1.58-.07,3.18,.31,4.72,1.19,4.68,4.82,7.75,10.61,11.34,2.9,1.79,5.89,3.44,8.96,4.93,4.18,2.04,8.49,3.8,12.89,5.29,6.77-.81,13.4-2.48,19.74-4.97,6.3-2.49,8.88-4.47,10.46-7.27,1.29-2.38,1.87-5.08,1.67-7.78,.39-3.04,.55-6.1,.48-9.16-.27-13.7-4.93-23.53-7.8-29.41-4.14-8.49-7.64-15.41-14.66-17.27-1.32-.35-2.68-.5-4.05-.46h.03Z"/>
    <path id="Path_321" data-name="Path 321" class="cls-4" d="M52.72,96.55l5.99-25.48,17.97,1.44c1.07,13.05,5.76,25.54,13.55,36.06,10.05,19.96,26.62,35.89,46.97,45.15,17.02,6.24,35.46,7.5,53.17,3.65,8.06-1.75,18.19-4.12,28.04-12.02,6.52-5.27,11.74-11.97,15.28-19.57,10-22.69,14.38-47.46,12.76-72.2,3.82,14.26,5.9,28.94,6.19,43.7,.16,8.38,.41,17.56-1.82,29.5-1.55,8.31-3.78,19.68-11.12,32.17-6.44,10.85-15.21,20.14-25.67,27.19-22.06,12.92-47.76,18.22-73.14,15.09-15.87-1.75-31.24-6.63-45.22-14.35-9.41-5.24-21.39-11.88-30.95-25.86-10.05-14.63-15.04-32.16-14.21-49.89,.73-4.86,1.46-9.72,2.19-14.57h.02Z"/>
    <path id="Path_322" data-name="Path 322" class="cls-4" d="M3.84,96.37c.33-.15,4.57-2.18,5.2-6.72,.25-2-.2-4.03-1.29-5.73,1.79,2.31,4.72,3.44,7.6,2.92,2.35-.52,4.34-2.05,5.45-4.18l1.16,11.96,14.13,9.98,17.45-4.89-1.65,14.02-18.61-1.9-16.65-11.72-12.8-3.72v-.02Z"/>
    <path id="Path_323" data-name="Path 323" class="cls-4" d="M139.36,83.57c-.4-.01-5.61-.23-8.12-4.42-1.08-1.87-1.44-4.06-1.02-6.17-.96,3.07-3.49,5.39-6.64,6.06-2.6,.49-5.28-.17-7.34-1.83l3.71,12.24-10.5,15.74-20.01,2.51,7.45,13.09,18.42-9.68,12.38-18.51,11.68-9.03h0Z"/>
    <path id="Path_324" data-name="Path 324" class="cls-4" d="M122.48,148.39l13.58-22.91,25.13-13.84c-.49-4.01-.98-8.02-1.46-12.02,1.83,2.3,4.76,3.41,7.65,2.91,2.31-.49,4.3-1.95,5.46-4.01-.83,1.98-.83,4.21,0,6.19,1.46,2.93,4.53,4.71,7.8,4.5-4.18,2.51-8.36,5.02-12.53,7.52l-26.58,16.02-4.73,23.67c-4.77-2.68-9.54-5.36-14.32-8.04h0Z"/>
    <path id="Path_325" data-name="Path 325" class="cls-4" d="M66.87,163.36l-31.24,5.98-14.58,30.73-12.53,6.78c3.14,.48,5.93,2.27,7.69,4.92,1.06,1.73,1.6,3.72,1.56,5.75,3.99-4.09,10.42-4.5,14.89-.94l-3.42-13.71c5.12-8.78,10.24-17.56,15.36-26.33,12.67,.51,25.34,1.02,38.02,1.54-5.26-4.91-10.52-9.82-15.77-14.73h.02Z"/>
    <circle id="Ellipse_39" data-name="Ellipse 39" class="cls-4" cx="7.51" cy="84.59" r="2.5"/>
    <circle id="Ellipse_40" data-name="Ellipse 40" class="cls-4" cx="21.5" cy="82.08" r="2.5"/>
    <circle id="Ellipse_41" data-name="Ellipse 41" class="cls-4" cx="2.5" cy="96.02" r="2.5"/>
    <circle id="Ellipse_42" data-name="Ellipse 42" class="cls-4" cx="115.99" cy="77.64" r="2.5"/>
    <circle id="Ellipse_43" data-name="Ellipse 43" class="cls-4" cx="130.21" cy="73.99" r="2.5"/>
    <circle id="Ellipse_44" data-name="Ellipse 44" class="cls-4" cx="139.36" cy="83.91" r="2.5"/>
    <circle id="Ellipse_45" data-name="Ellipse 45" class="cls-4" cx="158.8" cy="98.53" r="2.5"/>
    <circle id="Ellipse_46" data-name="Ellipse 46" class="cls-4" cx="172.57" cy="99.39" r="2.5"/>
    <circle id="Ellipse_47" data-name="Ellipse 47" class="cls-4" cx="181.06" cy="109.38" r="2.5"/>
    <circle id="Ellipse_48" data-name="Ellipse 48" class="cls-4" cx="8.53" cy="206.87" r="2.5"/>
    <circle id="Ellipse_49" data-name="Ellipse 49" class="cls-4" cx="17.2" cy="218.34" r="2.5"/>
    <circle id="Ellipse_50" data-name="Ellipse 50" class="cls-4" cx="33.15" cy="216.6" r="2.5"/>
    <path id="Path_326" data-name="Path 326" class="cls-3" d="M68.39,79.58c-1.24,9.68-1.92,19.42-2.04,29.18-.07,6.25,.09,12.2,.42,17.82,7.78,5.29,15.56,10.58,23.33,15.88l9.32,27.95c9.11-1.17,18.22-2.34,27.32-3.52,7.01,7.09,14.02,14.18,21.04,21.26,6.45-5.28,12.9-10.56,19.34-15.85,8.71,4,17.42,8,26.12,12.01,14.3-6.32,26.36-16.8,34.61-30.08-9.72,10.6-21.7,18.87-35.06,24.2-8.61-3.76-17.22-7.52-25.84-11.28-6.16,4.89-12.32,9.78-18.49,14.67-6.54-6.45-13.08-12.9-19.62-19.36-8.77,.8-17.54,1.6-26.3,2.39-2.79-8.44-5.58-16.88-8.37-25.33-7.59-4.82-15.18-9.64-22.76-14.47-.95-5.05-1.77-10.49-2.35-16.29-.97-9.69-1.2-19.45-.68-29.18h.01Z"/>
  </g>
  <g id="gult_spor" data-name="gult spor">
    <path id="Path_312" data-name="Path 312" class="cls-2" d="M183.37,234.49c1.78,.96,3.54,1.9,5.3,2.82"/>
    <path id="Path_313" data-name="Path 313" class="cls-1" d="M199.51,242.76c101.54,54.25,182.67,62.51,240.46,58.67,154.96-10.31,183.51-110.48,350.18-119.36,118.33-6.31,145.64,41.96,274.1,28.8,83.65-8.56,151.64-37.19,200.41-64.06"/>
    <path id="Path_314" data-name="Path 314" class="cls-2" d="M1270.03,144c1.8-.97,3.54-1.94,5.25-2.9"/>
  </g>
</svg>