<?xml version="1.0" encoding="UTF-8"?>
<svg id="Lag_1" data-name="Lag 1" xmlns="http://www.w3.org/2000/svg" viewBox="0 0 360.16 65.06">
  <defs>
    <style>
      .cls-1 {
        fill: #fff;
      }

      .cls-2 {
        fill: #6c9887;
      }

      .cls-3 {
        fill: none;
        stroke: #6c9887;
        stroke-dasharray: 0 0 0 0 0 0 12.14 12.14;
        stroke-miterlimit: 10;
        stroke-width: 2px;
      }
    </style>
  </defs>
  <path id="lille_spor" data-name="lille spor" class="cls-3" d="M304.92,62.73s-16.45,.39-17.71,0c-1.51-.47-19.9-4.55-21.93-5.04-17.19-4.12-22.74-3.04-38-.8-8.5,1.25-23.53-4.86-37.21-5.17-35.02-.8-43.11,7.94-79.47-1.67-10.55,.02-30.23-18.76-51.03-16.36C34.78,36.56,7.11-.82,.27,1.07"/>
  <g id="Firben_ikon" data-name="Firben ikon">
    <path id="Path_320" data-name="Path 320" class="cls-2" d="M346.38,30.61c.19-.05,.39-.07,.58-.07,.65,0,1.36,.3,2.78,1.81,1.16,1.15,2.12,2.49,2.83,3.97,.27,.56,.49,1.15,.68,1.74,.05,.25,.06,.51,.02,.76-.12,.76-.66,1.31-1.53,1.96-.44,.33-.89,.63-1.36,.91-.64,.38-1.3,.73-1.99,1.03-1.09-.04-2.18-.21-3.22-.52-1.04-.31-1.48-.59-1.77-1.02-.24-.36-.37-.79-.38-1.22-.1-.48-.17-.97-.2-1.46-.09-1.65,.19-3.29,.84-4.81,.54-1.41,1-2.57,2.1-2.96,.21-.07,.42-.12,.64-.13h0Z"/>
    <path id="Path_321" data-name="Path 321" class="cls-2" d="M351.16,45.7l-1.31-3.99-2.85,.48c.01,2.1-.56,4.16-1.66,5.95-1.33,3.33-3.75,6.11-6.87,7.87-2.63,1.23-5.56,1.69-8.44,1.33-1.65-.12-3.25-.65-4.65-1.53-1.11-.75-2.04-1.75-2.71-2.91-1.91-3.49-2.96-7.38-3.05-11.36-.41,2.33-.54,4.71-.38,7.07,.06,1.58,.3,3.16,.7,4.69,.43,1.78,1.18,3.47,2.23,4.98,1.18,1.64,2.71,3,4.48,3.98,3.71,1.76,7.89,2.25,11.9,1.39,2.51-.5,4.9-1.49,7.02-2.92,1.88-1.12,3.46-2.69,4.58-4.56,1.4-2.48,1.95-5.35,1.57-8.17l-.55-2.3h0Z"/>
    <path id="Path_322" data-name="Path 322" class="cls-2" d="M358.97,44.99c-.45-.17-.8-.54-.93-1-.07-.32-.02-.65,.13-.93-.25,.39-.71,.62-1.17,.57-.38-.05-.72-.27-.93-.59l-.02,1.93-2.12,1.79-2.86-.54,.46,2.22,2.95-.56,2.5-2.11,1.99-.77h0Z"/>
    <path id="Path_323" data-name="Path 323" class="cls-2" d="M337.14,44.84c.52-.06,.98-.37,1.23-.82,.15-.31,.17-.67,.08-1,.2,.48,.64,.81,1.15,.87,.42,.04,.84-.1,1.15-.39l-.42,2.01,1.9,2.37,3.23,.12-1.01,2.2-3.08-1.29-2.24-2.78-1.99-1.28h0Z"/>
    <path id="Path_324" data-name="Path 324" class="cls-2" d="M340.74,54.96l-2.49-3.47-4.21-1.86c.02-.65,.04-1.29,.07-1.94-.26,.39-.71,.61-1.18,.57-.38-.05-.71-.25-.93-.56,.16,.3,.19,.66,.09,.99-.19,.49-.66,.82-1.18,.83l2.11,1.03,4.47,2.18,1.08,3.72,2.18-1.48h0Z"/>
    <path id="Path_325" data-name="Path 325" class="cls-2" d="M349.83,56.57l5.07,.52,2.76,4.7,2.1,.91c-.5,.12-.92,.45-1.16,.89-.15,.29-.2,.62-.17,.94-.33-.28-.74-.43-1.17-.43-.45,0-.89,.18-1.22,.49l.35-2.24c-.94-1.33-1.88-2.66-2.82-3.99-2.02,.26-4.04,.52-6.06,.78l2.32-2.57h0Z"/>
    <circle id="Ellipse_39" data-name="Ellipse 39" class="cls-2" cx="358.21" cy="43.16" r=".4"/>
    <circle id="Ellipse_40" data-name="Ellipse 40" class="cls-2" cx="355.94" cy="42.95" r=".4"/>
    <circle id="Ellipse_41" data-name="Ellipse 41" class="cls-2" cx="359.17" cy="44.92" r=".4"/>
    <circle id="Ellipse_42" data-name="Ellipse 42" class="cls-2" cx="340.79" cy="43.57" r=".4"/>
    <circle id="Ellipse_43" data-name="Ellipse 43" class="cls-2" cx="338.46" cy="43.18" r=".4"/>
    <circle id="Ellipse_44" data-name="Ellipse 44" class="cls-2" cx="337.14" cy="44.89" r=".4"/>
    <circle id="Ellipse_45" data-name="Ellipse 45" class="cls-2" cx="334.24" cy="47.5" r=".4"/>
    <circle id="Ellipse_46" data-name="Ellipse 46" class="cls-2" cx="332.05" cy="47.83" r=".4"/>
    <circle id="Ellipse_47" data-name="Ellipse 47" class="cls-2" cx="330.83" cy="49.55" r=".4"/>
    <circle id="Ellipse_48" data-name="Ellipse 48" class="cls-2" cx="359.76" cy="62.71" r=".4"/>
    <circle id="Ellipse_49" data-name="Ellipse 49" class="cls-2" cx="358.54" cy="64.66" r=".4"/>
    <circle id="Ellipse_50" data-name="Ellipse 50" class="cls-2" cx="355.96" cy="64.61" r=".4"/>
    <path id="Path_326" data-name="Path 326" class="cls-1" d="M348.42,43.21c.33,1.53,.58,3.08,.74,4.63,.1,1,.16,1.95,.18,2.85l-3.51,2.86-1.1,4.6-4.41-.18c-1.02,1.23-2.04,2.46-3.06,3.69l-3.31-2.26-4.01,2.28c-2.37-.81-4.45-2.32-5.95-4.32,1.7,1.56,3.73,2.71,5.94,3.38l3.97-2.16,3.16,2.09,2.86-3.36c1.41,0,2.82,0,4.24,.01l.98-4.17,3.43-2.63c.08-.82,.14-1.7,.15-2.63,.02-1.56-.08-3.12-.3-4.67h0Z"/>
  </g>
</svg>